G04 #@! TF.GenerationSoftware,KiCad,Pcbnew,5.1.8-db9833491~87~ubuntu20.04.1*
G04 #@! TF.CreationDate,2020-11-19T11:44:44+01:00*
G04 #@! TF.ProjectId,daisy,64616973-792e-46b6-9963-61645f706362,v1.0*
G04 #@! TF.SameCoordinates,Original*
G04 #@! TF.FileFunction,Copper,L1,Top*
G04 #@! TF.FilePolarity,Positive*
%FSLAX46Y46*%
G04 Gerber Fmt 4.6, Leading zero omitted, Abs format (unit mm)*
G04 Created by KiCad (PCBNEW 5.1.8-db9833491~87~ubuntu20.04.1) date 2020-11-19 11:44:44*
%MOMM*%
%LPD*%
G01*
G04 APERTURE LIST*
G04 #@! TA.AperFunction,ComponentPad*
%ADD10C,2.250000*%
G04 #@! TD*
G04 #@! TA.AperFunction,ComponentPad*
%ADD11O,1.600000X1.000000*%
G04 #@! TD*
G04 #@! TA.AperFunction,ComponentPad*
%ADD12O,2.100000X1.000000*%
G04 #@! TD*
G04 #@! TA.AperFunction,SMDPad,CuDef*
%ADD13R,1.450000X0.300000*%
G04 #@! TD*
G04 #@! TA.AperFunction,SMDPad,CuDef*
%ADD14R,1.450000X0.600000*%
G04 #@! TD*
G04 #@! TA.AperFunction,SMDPad,CuDef*
%ADD15R,1.300000X0.250000*%
G04 #@! TD*
G04 #@! TA.AperFunction,SMDPad,CuDef*
%ADD16R,0.250000X1.300000*%
G04 #@! TD*
G04 #@! TA.AperFunction,SMDPad,CuDef*
%ADD17R,1.060000X0.650000*%
G04 #@! TD*
G04 #@! TA.AperFunction,ComponentPad*
%ADD18O,1.800000X1.070000*%
G04 #@! TD*
G04 #@! TA.AperFunction,ComponentPad*
%ADD19R,1.800000X1.070000*%
G04 #@! TD*
G04 #@! TA.AperFunction,ComponentPad*
%ADD20R,1.700000X1.700000*%
G04 #@! TD*
G04 #@! TA.AperFunction,ComponentPad*
%ADD21O,1.700000X1.700000*%
G04 #@! TD*
G04 #@! TA.AperFunction,SMDPad,CuDef*
%ADD22R,0.750000X1.500000*%
G04 #@! TD*
G04 #@! TA.AperFunction,ViaPad*
%ADD23C,0.600000*%
G04 #@! TD*
G04 #@! TA.AperFunction,ViaPad*
%ADD24C,0.800000*%
G04 #@! TD*
G04 #@! TA.AperFunction,Conductor*
%ADD25C,0.500000*%
G04 #@! TD*
G04 #@! TA.AperFunction,Conductor*
%ADD26C,0.250000*%
G04 #@! TD*
G04 #@! TA.AperFunction,Conductor*
%ADD27C,1.000000*%
G04 #@! TD*
G04 #@! TA.AperFunction,Conductor*
%ADD28C,0.750000*%
G04 #@! TD*
G04 APERTURE END LIST*
D10*
X196000000Y-128500000D03*
X193460000Y-131040000D03*
X198540000Y-131040000D03*
X198540000Y-125960000D03*
X193460000Y-125960000D03*
X196000000Y-105500000D03*
X193460000Y-108040000D03*
X198540000Y-108040000D03*
X198540000Y-102960000D03*
X193460000Y-102960000D03*
D11*
X121530000Y-117820000D03*
X121530000Y-109180000D03*
D12*
X125710000Y-109180000D03*
X125710000Y-117820000D03*
D13*
X126625000Y-113250000D03*
X126625000Y-115250000D03*
X126625000Y-114750000D03*
X126625000Y-114250000D03*
X126625000Y-113750000D03*
X126625000Y-112750000D03*
X126625000Y-112250000D03*
X126625000Y-111750000D03*
D14*
X126625000Y-116750000D03*
X126625000Y-115950000D03*
X126625000Y-111050000D03*
X126625000Y-110250000D03*
X126625000Y-110250000D03*
X126625000Y-111050000D03*
X126625000Y-115950000D03*
X126625000Y-116750000D03*
D15*
X145350000Y-116250000D03*
X145350000Y-115750000D03*
X145350000Y-115250000D03*
X145350000Y-114750000D03*
X145350000Y-114250000D03*
X145350000Y-113750000D03*
X145350000Y-113250000D03*
X145350000Y-112750000D03*
X145350000Y-112250000D03*
X145350000Y-111750000D03*
X145350000Y-111250000D03*
X145350000Y-110750000D03*
D16*
X143750000Y-109150000D03*
X143250000Y-109150000D03*
X142750000Y-109150000D03*
X142250000Y-109150000D03*
X141750000Y-109150000D03*
X141250000Y-109150000D03*
X140750000Y-109150000D03*
X140250000Y-109150000D03*
X139750000Y-109150000D03*
X139250000Y-109150000D03*
X138750000Y-109150000D03*
X138250000Y-109150000D03*
D15*
X136650000Y-110750000D03*
X136650000Y-111250000D03*
X136650000Y-111750000D03*
X136650000Y-112250000D03*
X136650000Y-112750000D03*
X136650000Y-113250000D03*
X136650000Y-113750000D03*
X136650000Y-114250000D03*
X136650000Y-114750000D03*
X136650000Y-115250000D03*
X136650000Y-115750000D03*
X136650000Y-116250000D03*
D16*
X138250000Y-117850000D03*
X138750000Y-117850000D03*
X139250000Y-117850000D03*
X139750000Y-117850000D03*
X140250000Y-117850000D03*
X140750000Y-117850000D03*
X141250000Y-117850000D03*
X141750000Y-117850000D03*
X142250000Y-117850000D03*
X142750000Y-117850000D03*
X143250000Y-117850000D03*
X143750000Y-117850000D03*
G04 #@! TA.AperFunction,SMDPad,CuDef*
G36*
G01*
X131275000Y-110643750D02*
X131275000Y-111156250D01*
G75*
G02*
X131056250Y-111375000I-218750J0D01*
G01*
X130618750Y-111375000D01*
G75*
G02*
X130400000Y-111156250I0J218750D01*
G01*
X130400000Y-110643750D01*
G75*
G02*
X130618750Y-110425000I218750J0D01*
G01*
X131056250Y-110425000D01*
G75*
G02*
X131275000Y-110643750I0J-218750D01*
G01*
G37*
G04 #@! TD.AperFunction*
G04 #@! TA.AperFunction,SMDPad,CuDef*
G36*
G01*
X129700000Y-110643750D02*
X129700000Y-111156250D01*
G75*
G02*
X129481250Y-111375000I-218750J0D01*
G01*
X129043750Y-111375000D01*
G75*
G02*
X128825000Y-111156250I0J218750D01*
G01*
X128825000Y-110643750D01*
G75*
G02*
X129043750Y-110425000I218750J0D01*
G01*
X129481250Y-110425000D01*
G75*
G02*
X129700000Y-110643750I0J-218750D01*
G01*
G37*
G04 #@! TD.AperFunction*
G04 #@! TA.AperFunction,SMDPad,CuDef*
G36*
G01*
X126874998Y-122665000D02*
X128725002Y-122665000D01*
G75*
G02*
X128975000Y-122914998I0J-249998D01*
G01*
X128975000Y-123740002D01*
G75*
G02*
X128725002Y-123990000I-249998J0D01*
G01*
X126874998Y-123990000D01*
G75*
G02*
X126625000Y-123740002I0J249998D01*
G01*
X126625000Y-122914998D01*
G75*
G02*
X126874998Y-122665000I249998J0D01*
G01*
G37*
G04 #@! TD.AperFunction*
G04 #@! TA.AperFunction,SMDPad,CuDef*
G36*
G01*
X126874998Y-119590000D02*
X128725002Y-119590000D01*
G75*
G02*
X128975000Y-119839998I0J-249998D01*
G01*
X128975000Y-120665002D01*
G75*
G02*
X128725002Y-120915000I-249998J0D01*
G01*
X126874998Y-120915000D01*
G75*
G02*
X126625000Y-120665002I0J249998D01*
G01*
X126625000Y-119839998D01*
G75*
G02*
X126874998Y-119590000I249998J0D01*
G01*
G37*
G04 #@! TD.AperFunction*
G04 #@! TA.AperFunction,SMDPad,CuDef*
G36*
G01*
X134074998Y-119587500D02*
X135925002Y-119587500D01*
G75*
G02*
X136175000Y-119837498I0J-249998D01*
G01*
X136175000Y-120662502D01*
G75*
G02*
X135925002Y-120912500I-249998J0D01*
G01*
X134074998Y-120912500D01*
G75*
G02*
X133825000Y-120662502I0J249998D01*
G01*
X133825000Y-119837498D01*
G75*
G02*
X134074998Y-119587500I249998J0D01*
G01*
G37*
G04 #@! TD.AperFunction*
G04 #@! TA.AperFunction,SMDPad,CuDef*
G36*
G01*
X134074998Y-122662500D02*
X135925002Y-122662500D01*
G75*
G02*
X136175000Y-122912498I0J-249998D01*
G01*
X136175000Y-123737502D01*
G75*
G02*
X135925002Y-123987500I-249998J0D01*
G01*
X134074998Y-123987500D01*
G75*
G02*
X133825000Y-123737502I0J249998D01*
G01*
X133825000Y-122912498D01*
G75*
G02*
X134074998Y-122662500I249998J0D01*
G01*
G37*
G04 #@! TD.AperFunction*
G04 #@! TA.AperFunction,SMDPad,CuDef*
G36*
G01*
X135370000Y-117153750D02*
X135370000Y-117666250D01*
G75*
G02*
X135151250Y-117885000I-218750J0D01*
G01*
X134713750Y-117885000D01*
G75*
G02*
X134495000Y-117666250I0J218750D01*
G01*
X134495000Y-117153750D01*
G75*
G02*
X134713750Y-116935000I218750J0D01*
G01*
X135151250Y-116935000D01*
G75*
G02*
X135370000Y-117153750I0J-218750D01*
G01*
G37*
G04 #@! TD.AperFunction*
G04 #@! TA.AperFunction,SMDPad,CuDef*
G36*
G01*
X136945000Y-117153750D02*
X136945000Y-117666250D01*
G75*
G02*
X136726250Y-117885000I-218750J0D01*
G01*
X136288750Y-117885000D01*
G75*
G02*
X136070000Y-117666250I0J218750D01*
G01*
X136070000Y-117153750D01*
G75*
G02*
X136288750Y-116935000I218750J0D01*
G01*
X136726250Y-116935000D01*
G75*
G02*
X136945000Y-117153750I0J-218750D01*
G01*
G37*
G04 #@! TD.AperFunction*
G04 #@! TA.AperFunction,SMDPad,CuDef*
G36*
G01*
X144653750Y-117545000D02*
X145166250Y-117545000D01*
G75*
G02*
X145385000Y-117763750I0J-218750D01*
G01*
X145385000Y-118201250D01*
G75*
G02*
X145166250Y-118420000I-218750J0D01*
G01*
X144653750Y-118420000D01*
G75*
G02*
X144435000Y-118201250I0J218750D01*
G01*
X144435000Y-117763750D01*
G75*
G02*
X144653750Y-117545000I218750J0D01*
G01*
G37*
G04 #@! TD.AperFunction*
G04 #@! TA.AperFunction,SMDPad,CuDef*
G36*
G01*
X144653750Y-119120000D02*
X145166250Y-119120000D01*
G75*
G02*
X145385000Y-119338750I0J-218750D01*
G01*
X145385000Y-119776250D01*
G75*
G02*
X145166250Y-119995000I-218750J0D01*
G01*
X144653750Y-119995000D01*
G75*
G02*
X144435000Y-119776250I0J218750D01*
G01*
X144435000Y-119338750D01*
G75*
G02*
X144653750Y-119120000I218750J0D01*
G01*
G37*
G04 #@! TD.AperFunction*
G04 #@! TA.AperFunction,SMDPad,CuDef*
G36*
G01*
X137336250Y-107870000D02*
X136823750Y-107870000D01*
G75*
G02*
X136605000Y-107651250I0J218750D01*
G01*
X136605000Y-107213750D01*
G75*
G02*
X136823750Y-106995000I218750J0D01*
G01*
X137336250Y-106995000D01*
G75*
G02*
X137555000Y-107213750I0J-218750D01*
G01*
X137555000Y-107651250D01*
G75*
G02*
X137336250Y-107870000I-218750J0D01*
G01*
G37*
G04 #@! TD.AperFunction*
G04 #@! TA.AperFunction,SMDPad,CuDef*
G36*
G01*
X137336250Y-109445000D02*
X136823750Y-109445000D01*
G75*
G02*
X136605000Y-109226250I0J218750D01*
G01*
X136605000Y-108788750D01*
G75*
G02*
X136823750Y-108570000I218750J0D01*
G01*
X137336250Y-108570000D01*
G75*
G02*
X137555000Y-108788750I0J-218750D01*
G01*
X137555000Y-109226250D01*
G75*
G02*
X137336250Y-109445000I-218750J0D01*
G01*
G37*
G04 #@! TD.AperFunction*
G04 #@! TA.AperFunction,SMDPad,CuDef*
G36*
G01*
X146945000Y-112496250D02*
X146945000Y-111983750D01*
G75*
G02*
X147163750Y-111765000I218750J0D01*
G01*
X147601250Y-111765000D01*
G75*
G02*
X147820000Y-111983750I0J-218750D01*
G01*
X147820000Y-112496250D01*
G75*
G02*
X147601250Y-112715000I-218750J0D01*
G01*
X147163750Y-112715000D01*
G75*
G02*
X146945000Y-112496250I0J218750D01*
G01*
G37*
G04 #@! TD.AperFunction*
G04 #@! TA.AperFunction,SMDPad,CuDef*
G36*
G01*
X148520000Y-112496250D02*
X148520000Y-111983750D01*
G75*
G02*
X148738750Y-111765000I218750J0D01*
G01*
X149176250Y-111765000D01*
G75*
G02*
X149395000Y-111983750I0J-218750D01*
G01*
X149395000Y-112496250D01*
G75*
G02*
X149176250Y-112715000I-218750J0D01*
G01*
X148738750Y-112715000D01*
G75*
G02*
X148520000Y-112496250I0J218750D01*
G01*
G37*
G04 #@! TD.AperFunction*
G04 #@! TA.AperFunction,SMDPad,CuDef*
G36*
G01*
X146945000Y-114006250D02*
X146945000Y-113493750D01*
G75*
G02*
X147163750Y-113275000I218750J0D01*
G01*
X147601250Y-113275000D01*
G75*
G02*
X147820000Y-113493750I0J-218750D01*
G01*
X147820000Y-114006250D01*
G75*
G02*
X147601250Y-114225000I-218750J0D01*
G01*
X147163750Y-114225000D01*
G75*
G02*
X146945000Y-114006250I0J218750D01*
G01*
G37*
G04 #@! TD.AperFunction*
G04 #@! TA.AperFunction,SMDPad,CuDef*
G36*
G01*
X148520000Y-114006250D02*
X148520000Y-113493750D01*
G75*
G02*
X148738750Y-113275000I218750J0D01*
G01*
X149176250Y-113275000D01*
G75*
G02*
X149395000Y-113493750I0J-218750D01*
G01*
X149395000Y-114006250D01*
G75*
G02*
X149176250Y-114225000I-218750J0D01*
G01*
X148738750Y-114225000D01*
G75*
G02*
X148520000Y-114006250I0J218750D01*
G01*
G37*
G04 #@! TD.AperFunction*
G04 #@! TA.AperFunction,SMDPad,CuDef*
G36*
G01*
X129700000Y-115843750D02*
X129700000Y-116356250D01*
G75*
G02*
X129481250Y-116575000I-218750J0D01*
G01*
X129043750Y-116575000D01*
G75*
G02*
X128825000Y-116356250I0J218750D01*
G01*
X128825000Y-115843750D01*
G75*
G02*
X129043750Y-115625000I218750J0D01*
G01*
X129481250Y-115625000D01*
G75*
G02*
X129700000Y-115843750I0J-218750D01*
G01*
G37*
G04 #@! TD.AperFunction*
G04 #@! TA.AperFunction,SMDPad,CuDef*
G36*
G01*
X131275000Y-115843750D02*
X131275000Y-116356250D01*
G75*
G02*
X131056250Y-116575000I-218750J0D01*
G01*
X130618750Y-116575000D01*
G75*
G02*
X130400000Y-116356250I0J218750D01*
G01*
X130400000Y-115843750D01*
G75*
G02*
X130618750Y-115625000I218750J0D01*
G01*
X131056250Y-115625000D01*
G75*
G02*
X131275000Y-115843750I0J-218750D01*
G01*
G37*
G04 #@! TD.AperFunction*
G04 #@! TA.AperFunction,SMDPad,CuDef*
G36*
G01*
X141493750Y-119055000D02*
X142006250Y-119055000D01*
G75*
G02*
X142225000Y-119273750I0J-218750D01*
G01*
X142225000Y-119711250D01*
G75*
G02*
X142006250Y-119930000I-218750J0D01*
G01*
X141493750Y-119930000D01*
G75*
G02*
X141275000Y-119711250I0J218750D01*
G01*
X141275000Y-119273750D01*
G75*
G02*
X141493750Y-119055000I218750J0D01*
G01*
G37*
G04 #@! TD.AperFunction*
G04 #@! TA.AperFunction,SMDPad,CuDef*
G36*
G01*
X141493750Y-120630000D02*
X142006250Y-120630000D01*
G75*
G02*
X142225000Y-120848750I0J-218750D01*
G01*
X142225000Y-121286250D01*
G75*
G02*
X142006250Y-121505000I-218750J0D01*
G01*
X141493750Y-121505000D01*
G75*
G02*
X141275000Y-121286250I0J218750D01*
G01*
X141275000Y-120848750D01*
G75*
G02*
X141493750Y-120630000I218750J0D01*
G01*
G37*
G04 #@! TD.AperFunction*
G04 #@! TA.AperFunction,SMDPad,CuDef*
G36*
G01*
X122366250Y-104945000D02*
X121853750Y-104945000D01*
G75*
G02*
X121635000Y-104726250I0J218750D01*
G01*
X121635000Y-104288750D01*
G75*
G02*
X121853750Y-104070000I218750J0D01*
G01*
X122366250Y-104070000D01*
G75*
G02*
X122585000Y-104288750I0J-218750D01*
G01*
X122585000Y-104726250D01*
G75*
G02*
X122366250Y-104945000I-218750J0D01*
G01*
G37*
G04 #@! TD.AperFunction*
G04 #@! TA.AperFunction,SMDPad,CuDef*
G36*
G01*
X122366250Y-103370000D02*
X121853750Y-103370000D01*
G75*
G02*
X121635000Y-103151250I0J218750D01*
G01*
X121635000Y-102713750D01*
G75*
G02*
X121853750Y-102495000I218750J0D01*
G01*
X122366250Y-102495000D01*
G75*
G02*
X122585000Y-102713750I0J-218750D01*
G01*
X122585000Y-103151250D01*
G75*
G02*
X122366250Y-103370000I-218750J0D01*
G01*
G37*
G04 #@! TD.AperFunction*
G04 #@! TA.AperFunction,SMDPad,CuDef*
G36*
G01*
X123866250Y-103370000D02*
X123353750Y-103370000D01*
G75*
G02*
X123135000Y-103151250I0J218750D01*
G01*
X123135000Y-102713750D01*
G75*
G02*
X123353750Y-102495000I218750J0D01*
G01*
X123866250Y-102495000D01*
G75*
G02*
X124085000Y-102713750I0J-218750D01*
G01*
X124085000Y-103151250D01*
G75*
G02*
X123866250Y-103370000I-218750J0D01*
G01*
G37*
G04 #@! TD.AperFunction*
G04 #@! TA.AperFunction,SMDPad,CuDef*
G36*
G01*
X123866250Y-104945000D02*
X123353750Y-104945000D01*
G75*
G02*
X123135000Y-104726250I0J218750D01*
G01*
X123135000Y-104288750D01*
G75*
G02*
X123353750Y-104070000I218750J0D01*
G01*
X123866250Y-104070000D01*
G75*
G02*
X124085000Y-104288750I0J-218750D01*
G01*
X124085000Y-104726250D01*
G75*
G02*
X123866250Y-104945000I-218750J0D01*
G01*
G37*
G04 #@! TD.AperFunction*
G04 #@! TA.AperFunction,SMDPad,CuDef*
G36*
G01*
X125366250Y-104945000D02*
X124853750Y-104945000D01*
G75*
G02*
X124635000Y-104726250I0J218750D01*
G01*
X124635000Y-104288750D01*
G75*
G02*
X124853750Y-104070000I218750J0D01*
G01*
X125366250Y-104070000D01*
G75*
G02*
X125585000Y-104288750I0J-218750D01*
G01*
X125585000Y-104726250D01*
G75*
G02*
X125366250Y-104945000I-218750J0D01*
G01*
G37*
G04 #@! TD.AperFunction*
G04 #@! TA.AperFunction,SMDPad,CuDef*
G36*
G01*
X125366250Y-103370000D02*
X124853750Y-103370000D01*
G75*
G02*
X124635000Y-103151250I0J218750D01*
G01*
X124635000Y-102713750D01*
G75*
G02*
X124853750Y-102495000I218750J0D01*
G01*
X125366250Y-102495000D01*
G75*
G02*
X125585000Y-102713750I0J-218750D01*
G01*
X125585000Y-103151250D01*
G75*
G02*
X125366250Y-103370000I-218750J0D01*
G01*
G37*
G04 #@! TD.AperFunction*
G04 #@! TA.AperFunction,SMDPad,CuDef*
G36*
G01*
X124783750Y-123560000D02*
X125296250Y-123560000D01*
G75*
G02*
X125515000Y-123778750I0J-218750D01*
G01*
X125515000Y-124216250D01*
G75*
G02*
X125296250Y-124435000I-218750J0D01*
G01*
X124783750Y-124435000D01*
G75*
G02*
X124565000Y-124216250I0J218750D01*
G01*
X124565000Y-123778750D01*
G75*
G02*
X124783750Y-123560000I218750J0D01*
G01*
G37*
G04 #@! TD.AperFunction*
G04 #@! TA.AperFunction,SMDPad,CuDef*
G36*
G01*
X124783750Y-121985000D02*
X125296250Y-121985000D01*
G75*
G02*
X125515000Y-122203750I0J-218750D01*
G01*
X125515000Y-122641250D01*
G75*
G02*
X125296250Y-122860000I-218750J0D01*
G01*
X124783750Y-122860000D01*
G75*
G02*
X124565000Y-122641250I0J218750D01*
G01*
X124565000Y-122203750D01*
G75*
G02*
X124783750Y-121985000I218750J0D01*
G01*
G37*
G04 #@! TD.AperFunction*
D17*
X130300000Y-120250000D03*
X130300000Y-121200000D03*
X130300000Y-122150000D03*
X132500000Y-122150000D03*
X132500000Y-120250000D03*
X131600000Y-114450000D03*
X131600000Y-113500000D03*
X131600000Y-112550000D03*
X129400000Y-112550000D03*
X129400000Y-114450000D03*
X129400000Y-113500000D03*
D18*
X127000000Y-100810000D03*
X127000000Y-99540000D03*
X127000000Y-98270000D03*
D19*
X127000000Y-97000000D03*
X127000000Y-126200000D03*
D18*
X127000000Y-127470000D03*
X127000000Y-128740000D03*
X127000000Y-130010000D03*
G04 #@! TA.AperFunction,SMDPad,CuDef*
G36*
G01*
X123273750Y-121985000D02*
X123786250Y-121985000D01*
G75*
G02*
X124005000Y-122203750I0J-218750D01*
G01*
X124005000Y-122641250D01*
G75*
G02*
X123786250Y-122860000I-218750J0D01*
G01*
X123273750Y-122860000D01*
G75*
G02*
X123055000Y-122641250I0J218750D01*
G01*
X123055000Y-122203750D01*
G75*
G02*
X123273750Y-121985000I218750J0D01*
G01*
G37*
G04 #@! TD.AperFunction*
G04 #@! TA.AperFunction,SMDPad,CuDef*
G36*
G01*
X123273750Y-123560000D02*
X123786250Y-123560000D01*
G75*
G02*
X124005000Y-123778750I0J-218750D01*
G01*
X124005000Y-124216250D01*
G75*
G02*
X123786250Y-124435000I-218750J0D01*
G01*
X123273750Y-124435000D01*
G75*
G02*
X123055000Y-124216250I0J218750D01*
G01*
X123055000Y-123778750D01*
G75*
G02*
X123273750Y-123560000I218750J0D01*
G01*
G37*
G04 #@! TD.AperFunction*
G04 #@! TA.AperFunction,SMDPad,CuDef*
G36*
G01*
X121783750Y-123560000D02*
X122296250Y-123560000D01*
G75*
G02*
X122515000Y-123778750I0J-218750D01*
G01*
X122515000Y-124216250D01*
G75*
G02*
X122296250Y-124435000I-218750J0D01*
G01*
X121783750Y-124435000D01*
G75*
G02*
X121565000Y-124216250I0J218750D01*
G01*
X121565000Y-123778750D01*
G75*
G02*
X121783750Y-123560000I218750J0D01*
G01*
G37*
G04 #@! TD.AperFunction*
G04 #@! TA.AperFunction,SMDPad,CuDef*
G36*
G01*
X121783750Y-121985000D02*
X122296250Y-121985000D01*
G75*
G02*
X122515000Y-122203750I0J-218750D01*
G01*
X122515000Y-122641250D01*
G75*
G02*
X122296250Y-122860000I-218750J0D01*
G01*
X121783750Y-122860000D01*
G75*
G02*
X121565000Y-122641250I0J218750D01*
G01*
X121565000Y-122203750D01*
G75*
G02*
X121783750Y-121985000I218750J0D01*
G01*
G37*
G04 #@! TD.AperFunction*
G04 #@! TA.AperFunction,SMDPad,CuDef*
G36*
G01*
X174575000Y-93956250D02*
X174575000Y-93043750D01*
G75*
G02*
X174818750Y-92800000I243750J0D01*
G01*
X175306250Y-92800000D01*
G75*
G02*
X175550000Y-93043750I0J-243750D01*
G01*
X175550000Y-93956250D01*
G75*
G02*
X175306250Y-94200000I-243750J0D01*
G01*
X174818750Y-94200000D01*
G75*
G02*
X174575000Y-93956250I0J243750D01*
G01*
G37*
G04 #@! TD.AperFunction*
G04 #@! TA.AperFunction,SMDPad,CuDef*
G36*
G01*
X176450000Y-93956250D02*
X176450000Y-93043750D01*
G75*
G02*
X176693750Y-92800000I243750J0D01*
G01*
X177181250Y-92800000D01*
G75*
G02*
X177425000Y-93043750I0J-243750D01*
G01*
X177425000Y-93956250D01*
G75*
G02*
X177181250Y-94200000I-243750J0D01*
G01*
X176693750Y-94200000D01*
G75*
G02*
X176450000Y-93956250I0J243750D01*
G01*
G37*
G04 #@! TD.AperFunction*
G04 #@! TA.AperFunction,SMDPad,CuDef*
G36*
G01*
X176450000Y-116956250D02*
X176450000Y-116043750D01*
G75*
G02*
X176693750Y-115800000I243750J0D01*
G01*
X177181250Y-115800000D01*
G75*
G02*
X177425000Y-116043750I0J-243750D01*
G01*
X177425000Y-116956250D01*
G75*
G02*
X177181250Y-117200000I-243750J0D01*
G01*
X176693750Y-117200000D01*
G75*
G02*
X176450000Y-116956250I0J243750D01*
G01*
G37*
G04 #@! TD.AperFunction*
G04 #@! TA.AperFunction,SMDPad,CuDef*
G36*
G01*
X174575000Y-116956250D02*
X174575000Y-116043750D01*
G75*
G02*
X174818750Y-115800000I243750J0D01*
G01*
X175306250Y-115800000D01*
G75*
G02*
X175550000Y-116043750I0J-243750D01*
G01*
X175550000Y-116956250D01*
G75*
G02*
X175306250Y-117200000I-243750J0D01*
G01*
X174818750Y-117200000D01*
G75*
G02*
X174575000Y-116956250I0J243750D01*
G01*
G37*
G04 #@! TD.AperFunction*
D20*
X152400000Y-125730000D03*
D21*
X152400000Y-128270000D03*
X149860000Y-125730000D03*
X149860000Y-128270000D03*
X147320000Y-125730000D03*
X147320000Y-128270000D03*
X144780000Y-125730000D03*
X144780000Y-128270000D03*
D22*
X189500000Y-108500000D03*
X188230000Y-108500000D03*
X186960000Y-108500000D03*
X181390000Y-108500000D03*
X180120000Y-108500000D03*
X178850000Y-108500000D03*
X177580000Y-108500000D03*
X176310000Y-108500000D03*
X175040000Y-108500000D03*
X173770000Y-108500000D03*
X172500000Y-108500000D03*
X172500000Y-95500000D03*
X173770000Y-95500000D03*
X175040000Y-95500000D03*
X176310000Y-95500000D03*
X177580000Y-95500000D03*
X178850000Y-95500000D03*
X180120000Y-95500000D03*
X181390000Y-95500000D03*
X186960000Y-95500000D03*
X188230000Y-95500000D03*
X189500000Y-95500000D03*
X189500000Y-118500000D03*
X188230000Y-118500000D03*
X186960000Y-118500000D03*
X181390000Y-118500000D03*
X180120000Y-118500000D03*
X178850000Y-118500000D03*
X177580000Y-118500000D03*
X176310000Y-118500000D03*
X175040000Y-118500000D03*
X173770000Y-118500000D03*
X172500000Y-118500000D03*
X172500000Y-131500000D03*
X173770000Y-131500000D03*
X175040000Y-131500000D03*
X176310000Y-131500000D03*
X177580000Y-131500000D03*
X178850000Y-131500000D03*
X180120000Y-131500000D03*
X181390000Y-131500000D03*
X186960000Y-131500000D03*
X188230000Y-131500000D03*
X189500000Y-131500000D03*
D23*
X130530002Y-113500000D03*
D24*
X127800000Y-122050000D03*
X135000000Y-122050000D03*
D23*
X144050006Y-112750000D03*
D24*
X138160000Y-107439998D03*
X143830000Y-119560000D03*
X134930000Y-116330000D03*
X150000001Y-112230000D03*
X189500000Y-132850000D03*
X186950000Y-132850000D03*
X189500000Y-117150012D03*
X188249974Y-117150000D03*
X186950000Y-117150000D03*
X180100000Y-117150000D03*
X172499998Y-117150000D03*
X173750000Y-117150000D03*
X189499998Y-94150000D03*
X188250002Y-94150000D03*
X186950000Y-94150000D03*
X181400000Y-94150000D03*
X180100000Y-94150010D03*
X186950000Y-109850000D03*
X189500000Y-109849996D03*
X181374990Y-117150000D03*
X178049990Y-116500000D03*
X178050000Y-93500000D03*
X173750000Y-94149994D03*
X172500000Y-94150000D03*
X172510002Y-107140000D03*
X172500000Y-130139998D03*
X131430000Y-121190000D03*
X131879999Y-116100000D03*
X131879990Y-110900000D03*
X149990000Y-113740000D03*
X142839998Y-121060000D03*
D23*
X127800000Y-115900000D03*
X128340000Y-113500000D03*
X127800000Y-111100000D03*
D24*
X137400000Y-118700000D03*
X135600000Y-118700000D03*
D23*
X176939996Y-109760000D03*
X178230000Y-109760001D03*
D25*
X131600000Y-113500000D02*
X130530002Y-113500000D01*
X127800000Y-123325000D02*
X127800000Y-122050000D01*
X135000000Y-123327500D02*
X135000000Y-122050000D01*
D26*
X145350000Y-112750000D02*
X144050006Y-112750000D01*
D25*
X138152502Y-107432500D02*
X138160000Y-107439998D01*
X137080000Y-107432500D02*
X138152502Y-107432500D01*
D26*
X138750000Y-108029998D02*
X138160000Y-107439998D01*
X138750000Y-109150000D02*
X138750000Y-108029998D01*
X143832500Y-119557500D02*
X143830000Y-119560000D01*
D25*
X144910000Y-119557500D02*
X143832500Y-119557500D01*
D26*
X143250000Y-118980000D02*
X143830000Y-119560000D01*
X143250000Y-117850000D02*
X143250000Y-118980000D01*
X134930000Y-117407500D02*
X134932500Y-117410000D01*
D25*
X134930000Y-116330000D02*
X134930000Y-117407500D01*
D26*
X135510000Y-115750000D02*
X134930000Y-116330000D01*
X136650000Y-115750000D02*
X135510000Y-115750000D01*
X149990001Y-112240000D02*
X150000001Y-112230000D01*
D25*
X148957500Y-112240000D02*
X149990001Y-112240000D01*
D26*
X189500000Y-131125000D02*
X189585000Y-131040000D01*
X189500000Y-131500000D02*
X189500000Y-131125000D01*
D25*
X189500000Y-131500000D02*
X189500000Y-132850000D01*
D26*
X186960000Y-132840000D02*
X186950000Y-132850000D01*
D25*
X186960000Y-131500000D02*
X186960000Y-132840000D01*
D26*
X189500000Y-118500000D02*
X189500000Y-117150012D01*
X188230000Y-117169974D02*
X188249974Y-117150000D01*
D25*
X188230000Y-118500000D02*
X188230000Y-117169974D01*
X186960000Y-118500000D02*
X186960000Y-117160000D01*
D26*
X186960000Y-117160000D02*
X186950000Y-117150000D01*
X180120000Y-117170000D02*
X180100000Y-117150000D01*
D25*
X180120000Y-118500000D02*
X180120000Y-117170000D01*
D26*
X172500000Y-117150002D02*
X172499998Y-117150000D01*
D25*
X172500000Y-118500000D02*
X172500000Y-117150002D01*
D26*
X173770000Y-117170000D02*
X173750000Y-117150000D01*
D25*
X173770000Y-118500000D02*
X173770000Y-117170000D01*
D26*
X189500000Y-94150002D02*
X189499998Y-94150000D01*
D25*
X189500000Y-95500000D02*
X189500000Y-94150002D01*
D26*
X188230000Y-94170002D02*
X188250002Y-94150000D01*
D25*
X188230000Y-95500000D02*
X188230000Y-94170002D01*
D26*
X186960000Y-94160000D02*
X186950000Y-94150000D01*
D25*
X186960000Y-95500000D02*
X186960000Y-94160000D01*
D26*
X181390000Y-94160000D02*
X181400000Y-94150000D01*
D25*
X181390000Y-95500000D02*
X181390000Y-94160000D01*
D26*
X180120000Y-94170010D02*
X180100000Y-94150010D01*
D25*
X180120000Y-95500000D02*
X180120000Y-94170010D01*
X186960000Y-108500000D02*
X186960000Y-109840000D01*
D26*
X186960000Y-109840000D02*
X186950000Y-109850000D01*
D25*
X189500000Y-108500000D02*
X189500000Y-109849996D01*
X181390000Y-118500000D02*
X181390000Y-117165010D01*
D26*
X181390000Y-117165010D02*
X181374990Y-117150000D01*
D25*
X176937500Y-116500000D02*
X178049990Y-116500000D01*
X176637500Y-93500000D02*
X177750000Y-93500000D01*
D26*
X173770000Y-94169994D02*
X173750000Y-94149994D01*
D25*
X173770000Y-95500000D02*
X173770000Y-94169994D01*
X172500000Y-95500000D02*
X172500000Y-94150000D01*
X172500000Y-108500000D02*
X172500000Y-107150002D01*
D26*
X172500000Y-107150002D02*
X172510002Y-107140000D01*
D25*
X172500000Y-131500000D02*
X172500000Y-130139998D01*
D26*
X131420000Y-121200000D02*
X131430000Y-121190000D01*
D25*
X130300000Y-121200000D02*
X131420000Y-121200000D01*
D26*
X130837500Y-116100000D02*
X131879999Y-116100000D01*
X130837500Y-110900000D02*
X131879990Y-110900000D01*
X148957500Y-113750000D02*
X149980000Y-113750000D01*
X149980000Y-113750000D02*
X149990000Y-113740000D01*
D25*
X126590000Y-117120000D02*
X125890000Y-117820000D01*
X126590000Y-116700000D02*
X126590000Y-117120000D01*
X126590000Y-109880000D02*
X125890000Y-109180000D01*
X126590000Y-110300000D02*
X126590000Y-109880000D01*
D26*
X141750000Y-121067500D02*
X142832498Y-121067500D01*
X142832498Y-121067500D02*
X142839998Y-121060000D01*
D25*
X127800000Y-115900000D02*
X127800000Y-120252500D01*
D26*
X130297500Y-120252500D02*
X130300000Y-120250000D01*
D25*
X127800000Y-120252500D02*
X130297500Y-120252500D01*
X129400000Y-113500000D02*
X128340000Y-113500000D01*
D26*
X129520000Y-120250000D02*
X130300000Y-120250000D01*
X129230000Y-120540000D02*
X129520000Y-120250000D01*
X129230000Y-121860000D02*
X129230000Y-120540000D01*
X130300000Y-122150000D02*
X129520000Y-122150000D01*
X129520000Y-122150000D02*
X129230000Y-121860000D01*
D25*
X126590000Y-115900000D02*
X127800000Y-115900000D01*
X126590000Y-111100000D02*
X127800000Y-111100000D01*
D26*
X137312500Y-109150000D02*
X137137500Y-108975000D01*
X138250000Y-109150000D02*
X137312500Y-109150000D01*
X145350000Y-116250000D02*
X145350000Y-117537500D01*
X144687500Y-117850000D02*
X144862500Y-118025000D01*
X143750000Y-117850000D02*
X144687500Y-117850000D01*
X145350000Y-117537500D02*
X144862500Y-118025000D01*
X136650000Y-117267500D02*
X136507500Y-117410000D01*
X136650000Y-116250000D02*
X136650000Y-117267500D01*
D25*
X138750000Y-115750000D02*
X143250000Y-115750000D01*
X138750000Y-111250000D02*
X138750000Y-115750000D01*
D26*
X143300000Y-115750000D02*
X143250000Y-115750000D01*
D25*
X144910000Y-117982500D02*
X144910000Y-117360000D01*
X144910000Y-117360000D02*
X143300000Y-115750000D01*
D26*
X138700000Y-115750000D02*
X138750000Y-115750000D01*
D25*
X136507500Y-117410000D02*
X137040000Y-117410000D01*
X137040000Y-117410000D02*
X138700000Y-115750000D01*
D26*
X138750000Y-111215000D02*
X138750000Y-111250000D01*
D25*
X137080000Y-109545000D02*
X138750000Y-111215000D01*
X137080000Y-109007500D02*
X137080000Y-109545000D01*
D26*
X147372500Y-112250000D02*
X147382500Y-112240000D01*
X145350000Y-112250000D02*
X147372500Y-112250000D01*
D25*
X136507500Y-117410000D02*
X136507500Y-119152500D01*
X135410000Y-120250000D02*
X136507500Y-119152500D01*
X135000000Y-120250000D02*
X135410000Y-120250000D01*
X133280000Y-120250000D02*
X135000000Y-120250000D01*
X132500000Y-120250000D02*
X133280000Y-120250000D01*
X138750000Y-111250000D02*
X143250000Y-111250000D01*
D26*
X175040000Y-116522500D02*
X175062500Y-116500000D01*
D25*
X175040000Y-118500000D02*
X175040000Y-116522500D01*
D26*
X144450000Y-112250000D02*
X143450000Y-111250000D01*
X143450000Y-111250000D02*
X143250000Y-111250000D01*
X145350000Y-112250000D02*
X144450000Y-112250000D01*
X174812500Y-116250000D02*
X175062500Y-116500000D01*
X175040000Y-93522500D02*
X175062500Y-93500000D01*
D25*
X175040000Y-95500000D02*
X175040000Y-93522500D01*
X165210000Y-116250000D02*
X174812500Y-116250000D01*
X158710000Y-109750000D02*
X165210000Y-116250000D01*
X144750000Y-109750000D02*
X158710000Y-109750000D01*
X143250000Y-111250000D02*
X144750000Y-109750000D01*
X174506263Y-92943763D02*
X149136237Y-92943763D01*
X175062500Y-93500000D02*
X174506263Y-92943763D01*
X136350000Y-109020000D02*
X136362500Y-109007500D01*
X149136237Y-92943763D02*
X135905031Y-106174969D01*
X135905031Y-106174969D02*
X135905031Y-108575031D01*
X136362500Y-109007500D02*
X137080000Y-109007500D01*
X135905031Y-108575031D02*
X136350000Y-109020000D01*
D26*
X152400000Y-127067919D02*
X152400000Y-125730000D01*
X152400000Y-128270000D02*
X152400000Y-127067919D01*
D25*
X150300000Y-130370000D02*
X152400000Y-128270000D01*
X140270000Y-130370000D02*
X150300000Y-130370000D01*
X136824989Y-126924989D02*
X140270000Y-130370000D01*
X135000000Y-120250000D02*
X136824989Y-122074989D01*
X136824989Y-122074989D02*
X136824989Y-126924989D01*
D26*
X122110000Y-102395000D02*
X122110000Y-102932500D01*
X122110000Y-100740000D02*
X122110000Y-102395000D01*
X125850000Y-97000000D02*
X122110000Y-100740000D01*
X127000000Y-97000000D02*
X125850000Y-97000000D01*
X125040000Y-124535000D02*
X125040000Y-123997500D01*
X125040000Y-125390000D02*
X125040000Y-124535000D01*
X125850000Y-126200000D02*
X125040000Y-125390000D01*
X127000000Y-126200000D02*
X125850000Y-126200000D01*
X128412500Y-115250000D02*
X129262500Y-116100000D01*
X126590000Y-115250000D02*
X128412500Y-115250000D01*
X131600000Y-114450000D02*
X129400000Y-114450000D01*
X133030000Y-113760000D02*
X133520000Y-113760000D01*
X134510000Y-114750000D02*
X136650000Y-114750000D01*
X133520000Y-113760000D02*
X134510000Y-114750000D01*
X131600000Y-114450000D02*
X132340000Y-114450000D01*
X132340000Y-114450000D02*
X133030000Y-113760000D01*
X127515000Y-114250000D02*
X126590000Y-114250000D01*
X127690000Y-114075000D02*
X127515000Y-114250000D01*
X127690000Y-113425000D02*
X127690000Y-114075000D01*
X126590000Y-113250000D02*
X127515000Y-113250000D01*
X127515000Y-113250000D02*
X127690000Y-113425000D01*
X128520000Y-114450000D02*
X129400000Y-114450000D01*
X126590000Y-114250000D02*
X128320000Y-114250000D01*
X128320000Y-114250000D02*
X128520000Y-114450000D01*
X129400000Y-112550000D02*
X131600000Y-112550000D01*
X133070000Y-113250000D02*
X132370000Y-112550000D01*
X133670000Y-113250000D02*
X133070000Y-113250000D01*
X136650000Y-114250000D02*
X134670000Y-114250000D01*
X132370000Y-112550000D02*
X131600000Y-112550000D01*
X134670000Y-114250000D02*
X133670000Y-113250000D01*
X125640001Y-113725001D02*
X125665000Y-113750000D01*
X125469999Y-113725001D02*
X125640001Y-113725001D01*
X125665000Y-113750000D02*
X126590000Y-113750000D01*
X125360000Y-113615002D02*
X125469999Y-113725001D01*
X125360000Y-112884998D02*
X125360000Y-113615002D01*
X125469999Y-112774999D02*
X125360000Y-112884998D01*
X125640001Y-112774999D02*
X125469999Y-112774999D01*
X128330000Y-112750000D02*
X125665000Y-112750000D01*
X128530000Y-112550000D02*
X128330000Y-112750000D01*
X125665000Y-112750000D02*
X125640001Y-112774999D01*
X129400000Y-112550000D02*
X128530000Y-112550000D01*
X127937499Y-112225001D02*
X128800888Y-111361612D01*
X127254999Y-112225001D02*
X127937499Y-112225001D01*
X128800888Y-111361612D02*
X129262500Y-110900000D01*
X127230000Y-112250000D02*
X127254999Y-112225001D01*
X126590000Y-112250000D02*
X127230000Y-112250000D01*
X122140000Y-105170000D02*
X122140000Y-104537500D01*
X135240000Y-112250000D02*
X133979989Y-110989990D01*
X136650000Y-112250000D02*
X135240000Y-112250000D01*
X133979989Y-110989990D02*
X133979989Y-108876398D01*
X133979989Y-108876398D02*
X131903558Y-106799969D01*
X122140000Y-104537500D02*
X122110000Y-104507500D01*
X131903558Y-106799969D02*
X123769969Y-106799969D01*
X123769969Y-106799969D02*
X122140000Y-105170000D01*
X123610000Y-104969112D02*
X123610000Y-104507500D01*
X135376410Y-111750000D02*
X134430000Y-110803590D01*
X136650000Y-111750000D02*
X135376410Y-111750000D01*
X123610000Y-105160000D02*
X123610000Y-104969112D01*
X134430000Y-110803590D02*
X134430000Y-108689998D01*
X134430000Y-108689998D02*
X132089957Y-106349959D01*
X132089957Y-106349959D02*
X124799959Y-106349959D01*
X124799959Y-106349959D02*
X123610000Y-105160000D01*
X125040000Y-121620000D02*
X125040000Y-122422500D01*
X124150000Y-120730000D02*
X125040000Y-121620000D01*
X124150000Y-108770000D02*
X124150000Y-120730000D01*
X136650000Y-113750000D02*
X134810000Y-113750000D01*
X132629956Y-111569956D02*
X132629956Y-109489956D01*
X132629956Y-109489956D02*
X131290000Y-108150000D01*
X131290000Y-108150000D02*
X124770000Y-108150000D01*
X134810000Y-113750000D02*
X132629956Y-111569956D01*
X124770000Y-108150000D02*
X124150000Y-108770000D01*
X123699989Y-108583600D02*
X123699989Y-121460011D01*
X134946410Y-113250000D02*
X133079967Y-111383557D01*
X123699989Y-121460011D02*
X123530000Y-121630000D01*
X133079967Y-109249197D02*
X131530759Y-107699989D01*
X136650000Y-113250000D02*
X134946410Y-113250000D01*
X133079967Y-111383557D02*
X133079967Y-109249197D01*
X131530759Y-107699989D02*
X124583600Y-107699989D01*
X123530000Y-121630000D02*
X123530000Y-122422500D01*
X124583600Y-107699989D02*
X123699989Y-108583600D01*
X125110000Y-102395000D02*
X125110000Y-102932500D01*
X125110000Y-102240000D02*
X125110000Y-102395000D01*
X127000000Y-100810000D02*
X126540000Y-100810000D01*
X126540000Y-100810000D02*
X125110000Y-102240000D01*
X123610000Y-102395000D02*
X123610000Y-102932500D01*
X123610000Y-101780000D02*
X123610000Y-102395000D01*
X125850000Y-99540000D02*
X123610000Y-101780000D01*
X127000000Y-99540000D02*
X125850000Y-99540000D01*
X123530000Y-124535000D02*
X123530000Y-123997500D01*
X123530000Y-126420000D02*
X123530000Y-124535000D01*
X125850000Y-128740000D02*
X123530000Y-126420000D01*
X127000000Y-128740000D02*
X125850000Y-128740000D01*
X122040000Y-124535000D02*
X122040000Y-123997500D01*
X122040000Y-126200000D02*
X122040000Y-124535000D01*
X125850000Y-130010000D02*
X122040000Y-126200000D01*
X127000000Y-130010000D02*
X125850000Y-130010000D01*
X136650000Y-111250000D02*
X135512820Y-111250000D01*
X135512820Y-111250000D02*
X134880011Y-110617191D01*
X134880011Y-110617191D02*
X134880010Y-108503598D01*
X134880010Y-108503598D02*
X130883912Y-104507500D01*
X130883912Y-104507500D02*
X125685000Y-104507500D01*
X125685000Y-104507500D02*
X125110000Y-104507500D01*
X123249978Y-120420022D02*
X122040000Y-121630000D01*
X123249978Y-108397200D02*
X123249978Y-120420022D01*
X136650000Y-112750000D02*
X135082820Y-112750000D01*
X135082820Y-112750000D02*
X133529978Y-111197158D01*
X133529978Y-111197158D02*
X133529978Y-109062797D01*
X122040000Y-121630000D02*
X122040000Y-122422500D01*
X131717159Y-107249978D02*
X124397200Y-107249978D01*
X133529978Y-109062797D02*
X131717159Y-107249978D01*
X124397200Y-107249978D02*
X123249978Y-108397200D01*
X141750000Y-117850000D02*
X141750000Y-119492500D01*
X146882500Y-113250000D02*
X147382500Y-113750000D01*
X145350000Y-113250000D02*
X146882500Y-113250000D01*
X140419989Y-118923600D02*
X140419989Y-124496400D01*
X142933589Y-127010000D02*
X146040000Y-127010000D01*
X140419989Y-124496400D02*
X142933589Y-127010000D01*
X146470001Y-126579999D02*
X147320000Y-125730000D01*
X140750000Y-118593590D02*
X140419989Y-118923600D01*
X140750000Y-117850000D02*
X140750000Y-118593590D01*
X146040000Y-127010000D02*
X146470001Y-126579999D01*
X134700000Y-118700000D02*
X135600000Y-118700000D01*
X134080000Y-118080000D02*
X134700000Y-118700000D01*
X136650000Y-115250000D02*
X134860000Y-115250000D01*
X134080000Y-116030000D02*
X134080000Y-118080000D01*
X134860000Y-115250000D02*
X134080000Y-116030000D01*
X145960000Y-129630000D02*
X146470001Y-129119999D01*
X146470001Y-129119999D02*
X147320000Y-128270000D01*
X137400000Y-118700000D02*
X137400000Y-126390000D01*
X137400000Y-126390000D02*
X140640000Y-129630000D01*
X140640000Y-129630000D02*
X145960000Y-129630000D01*
X140870000Y-124310000D02*
X142290000Y-125730000D01*
X141250000Y-117850000D02*
X141250000Y-118730000D01*
X142290000Y-125730000D02*
X144780000Y-125730000D01*
X141250000Y-118730000D02*
X140870000Y-119110000D01*
X140870000Y-119110000D02*
X140870000Y-124310000D01*
X138250000Y-117850000D02*
X138250000Y-125900000D01*
X140620000Y-128270000D02*
X144780000Y-128270000D01*
X138250000Y-125900000D02*
X140620000Y-128270000D01*
D27*
X194550432Y-105500000D02*
X196000000Y-105500000D01*
X190100000Y-105500000D02*
X194550432Y-105500000D01*
D28*
X188230000Y-108500000D02*
X188230000Y-107370000D01*
D27*
X188230000Y-107370000D02*
X190100000Y-105500000D01*
X194550432Y-128500000D02*
X196000000Y-128500000D01*
X190050000Y-128500000D02*
X194550432Y-128500000D01*
D28*
X188230000Y-131500000D02*
X188230000Y-130320000D01*
D27*
X188230000Y-130320000D02*
X190050000Y-128500000D01*
D26*
X144125000Y-109150000D02*
X143750000Y-109150000D01*
X158990000Y-109150000D02*
X144125000Y-109150000D01*
X181390000Y-130500000D02*
X182439967Y-129450033D01*
X165140000Y-115300000D02*
X158990000Y-109150000D01*
X181390000Y-131500000D02*
X181390000Y-130500000D01*
X182439967Y-129450033D02*
X182439967Y-116289967D01*
X182439967Y-116289967D02*
X181450000Y-115300000D01*
X181450000Y-115300000D02*
X165140000Y-115300000D01*
X142750000Y-108250000D02*
X142750000Y-109150000D01*
X166336388Y-106049978D02*
X144363611Y-106049978D01*
X171126388Y-110839978D02*
X166336388Y-106049978D01*
X180120000Y-109590000D02*
X178870022Y-110839978D01*
X180120000Y-108500000D02*
X180120000Y-109590000D01*
X144363611Y-106049978D02*
X142750000Y-107663589D01*
X178870022Y-110839978D02*
X171126388Y-110839978D01*
X142750000Y-107663589D02*
X142750000Y-108250000D01*
X181900000Y-106900000D02*
X182889978Y-107889978D01*
X181907202Y-132749978D02*
X180339978Y-132749978D01*
X181345000Y-106900000D02*
X181900000Y-106900000D01*
X182889978Y-107889978D02*
X182889978Y-131767202D01*
X180120000Y-132530000D02*
X180120000Y-132500000D01*
X182889978Y-131767202D02*
X181907202Y-132749978D01*
X180339978Y-132749978D02*
X180120000Y-132530000D01*
X180120000Y-132500000D02*
X180120000Y-131500000D01*
X180120000Y-108125000D02*
X181345000Y-106900000D01*
X180120000Y-108500000D02*
X180120000Y-108125000D01*
X166522788Y-105599967D02*
X171312787Y-110389967D01*
X177265035Y-110389967D02*
X177580000Y-110075002D01*
X177580000Y-109500000D02*
X177580000Y-108500000D01*
X177580000Y-110075002D02*
X177580000Y-109500000D01*
X142250000Y-109150000D02*
X142250000Y-107518460D01*
X171312787Y-110389967D02*
X177265035Y-110389967D01*
X142250000Y-107518460D02*
X144168493Y-105599967D01*
X144168493Y-105599967D02*
X166522788Y-105599967D01*
X183790000Y-132140000D02*
X183790000Y-107490000D01*
X178680000Y-133650000D02*
X182280000Y-133650000D01*
X177580000Y-132550000D02*
X178680000Y-133650000D01*
X183790000Y-107490000D02*
X182260000Y-105960000D01*
X182260000Y-105960000D02*
X179090000Y-105960000D01*
X177580000Y-107470000D02*
X177580000Y-108500000D01*
X179090000Y-105960000D02*
X177580000Y-107470000D01*
X182280000Y-133650000D02*
X183790000Y-132140000D01*
X177580000Y-131500000D02*
X177580000Y-132550000D01*
X178850000Y-108500000D02*
X178850000Y-109500000D01*
X178589999Y-109760001D02*
X178230000Y-109760001D01*
X178850000Y-109500000D02*
X178589999Y-109760001D01*
X141750000Y-107382050D02*
X143982093Y-105149957D01*
X166709189Y-105149958D02*
X171319231Y-109760000D01*
X141750000Y-109150000D02*
X141750000Y-107382050D01*
X143982093Y-105149957D02*
X166709189Y-105149958D01*
X171319231Y-109760000D02*
X176515732Y-109760000D01*
X176515732Y-109760000D02*
X176939996Y-109760000D01*
X179549989Y-133199989D02*
X178850000Y-132500000D01*
X178850000Y-132500000D02*
X178850000Y-131500000D01*
X183339989Y-107676399D02*
X183339989Y-131953601D01*
X183339989Y-131953601D02*
X182093601Y-133199989D01*
X182073601Y-106410011D02*
X183339989Y-107676399D01*
X178850000Y-108125000D02*
X180564989Y-106410011D01*
X178850000Y-108500000D02*
X178850000Y-108125000D01*
X180564989Y-106410011D02*
X182073601Y-106410011D01*
X182093601Y-133199989D02*
X179549989Y-133199989D01*
X176310000Y-130500000D02*
X176310000Y-131500000D01*
X176310000Y-130420000D02*
X176310000Y-130500000D01*
X145350000Y-114750000D02*
X160640000Y-114750000D01*
X160640000Y-114750000D02*
X176310000Y-130420000D01*
X175040000Y-131500000D02*
X175040000Y-129853589D01*
X175040000Y-129853589D02*
X160436411Y-115250000D01*
X146250000Y-115250000D02*
X145350000Y-115250000D01*
X160436411Y-115250000D02*
X146250000Y-115250000D01*
X146250000Y-115750000D02*
X145350000Y-115750000D01*
X173770000Y-129220000D02*
X160300000Y-115750000D01*
X173770000Y-131500000D02*
X173770000Y-129220000D01*
X160300000Y-115750000D02*
X146250000Y-115750000D01*
X178850000Y-119490000D02*
X178850000Y-118500000D01*
X146512822Y-111750000D02*
X146862800Y-111400022D01*
X145350000Y-111750000D02*
X146512822Y-111750000D01*
X146862800Y-111400022D02*
X158213612Y-111400022D01*
X158213612Y-111400022D02*
X167713612Y-120900022D01*
X167713612Y-120900022D02*
X177439978Y-120900022D01*
X177439978Y-120900022D02*
X178850000Y-119490000D01*
X177580000Y-119500000D02*
X176629989Y-120450011D01*
X177580000Y-118500000D02*
X177580000Y-119500000D01*
X146376411Y-111250000D02*
X146250000Y-111250000D01*
X146250000Y-111250000D02*
X145350000Y-111250000D01*
X146676400Y-110950011D02*
X146376411Y-111250000D01*
X158400012Y-110950011D02*
X146676400Y-110950011D01*
X176629989Y-120450011D02*
X167900012Y-120450011D01*
X167900012Y-120450011D02*
X158400012Y-110950011D01*
X146240000Y-110750000D02*
X145350000Y-110750000D01*
X146500000Y-110490000D02*
X146240000Y-110750000D01*
X168146812Y-120000000D02*
X158636812Y-110490000D01*
X175820000Y-120000000D02*
X168146812Y-120000000D01*
X176310000Y-118500000D02*
X176310000Y-119510000D01*
X158636812Y-110490000D02*
X146500000Y-110490000D01*
X176310000Y-119510000D02*
X175820000Y-120000000D01*
X143250000Y-107863589D02*
X143250000Y-108250000D01*
X181390000Y-108500000D02*
X181390000Y-109590000D01*
X166136400Y-106499989D02*
X144613600Y-106499989D01*
X179690011Y-111289989D02*
X170926399Y-111289989D01*
X143250000Y-108250000D02*
X143250000Y-109150000D01*
X181390000Y-109590000D02*
X179690011Y-111289989D01*
X170926399Y-111289989D02*
X166136400Y-106499989D01*
X144613600Y-106499989D02*
X143250000Y-107863589D01*
X171093026Y-104650022D02*
X143845618Y-104650022D01*
X141250000Y-108250000D02*
X141250000Y-109150000D01*
X173770000Y-108500000D02*
X173770000Y-107326996D01*
X143845618Y-104650022D02*
X141250000Y-107245640D01*
X173770000Y-107326996D02*
X171093026Y-104650022D01*
X141250000Y-107245640D02*
X141250000Y-108250000D01*
X140250000Y-106972820D02*
X140250000Y-108250000D01*
X143472820Y-103750000D02*
X140250000Y-106972820D01*
X140250000Y-108250000D02*
X140250000Y-109150000D01*
X172610000Y-103750000D02*
X143472820Y-103750000D01*
X176310000Y-108500000D02*
X176310000Y-107450000D01*
X176310000Y-107450000D02*
X172610000Y-103750000D01*
X140750000Y-107109230D02*
X140750000Y-108250000D01*
X143659219Y-104200011D02*
X140750000Y-107109230D01*
X171770011Y-104200011D02*
X143659219Y-104200011D01*
X140750000Y-108250000D02*
X140750000Y-109150000D01*
X175040000Y-108500000D02*
X175040000Y-107470000D01*
X175040000Y-107470000D02*
X171770011Y-104200011D01*
X139250000Y-106700000D02*
X139250000Y-109150000D01*
X170800000Y-102800000D02*
X143150000Y-102800000D01*
X176310000Y-97290000D02*
X170800000Y-102800000D01*
X176310000Y-95500000D02*
X176310000Y-97290000D01*
X143150000Y-102800000D02*
X139250000Y-106700000D01*
X143336399Y-103250011D02*
X170986400Y-103250011D01*
X170986400Y-103250011D02*
X177580000Y-96656411D01*
X139750000Y-106836410D02*
X143336399Y-103250011D01*
X177580000Y-96500000D02*
X177580000Y-95500000D01*
X177580000Y-96656411D02*
X177580000Y-96500000D01*
X139750000Y-109150000D02*
X139750000Y-106836410D01*
X178850000Y-92850000D02*
X178200000Y-92200000D01*
X135330020Y-105936792D02*
X135330020Y-110390020D01*
X178850000Y-95500000D02*
X178850000Y-92850000D01*
X135690000Y-110750000D02*
X136650000Y-110750000D01*
X178200000Y-92200000D02*
X149066812Y-92200000D01*
X135330020Y-110390020D02*
X135690000Y-110750000D01*
X149066812Y-92200000D02*
X135330020Y-105936792D01*
M02*
