M48
; DRILL file {KiCad 5.1.8-db9833491~87~ubuntu20.04.1} date Thu Nov 19 11:44:42 2020
; FORMAT={-:-/ absolute / inch / decimal}
; #@! TF.CreationDate,2020-11-19T11:44:42+01:00
; #@! TF.GenerationSoftware,Kicad,Pcbnew,5.1.8-db9833491~87~ubuntu20.04.1
; #@! TF.FileFunction,Plated,1,2,PTH
FMAT,2
INCH
T1C0.0157
T2C0.0236
T3C0.0354
T4C0.0394
T5C0.0591
%
G90
G05
T1
X5.0315Y-4.374
X5.0315Y-4.563
X5.0315Y-4.8051
X5.0528Y-4.4685
X5.139Y-4.4685
X5.1744Y-4.7713
X5.1921Y-4.3661
X5.1921Y-4.5709
X5.3122Y-4.5799
X5.315Y-4.8051
X5.3386Y-4.6732
X5.4094Y-4.6732
X5.4394Y-4.2299
X5.6236Y-4.7661
X5.6626Y-4.7071
X5.6713Y-4.439
X5.9051Y-4.478
X5.9055Y-4.4185
X6.7913Y-4.6122
X6.7913Y-3.7067
X6.7913Y-5.1236
X6.7917Y-4.2181
X6.8406Y-3.7067
X6.8406Y-4.6122
X6.9661Y-4.3213
X7.0098Y-4.5866
X7.0098Y-3.6811
X7.0169Y-4.3213
X7.0906Y-3.7067
X7.0906Y-4.6122
X7.1407Y-4.6122
X7.1417Y-3.7067
X7.3602Y-3.7067
X7.3602Y-4.3248
X7.3602Y-4.6122
X7.3602Y-5.2303
X7.4114Y-4.6122
X7.4114Y-3.7067
X7.4606Y-3.7067
X7.4606Y-4.3248
X7.4606Y-4.6122
X7.4606Y-5.2303
T3
X5.0Y-3.8189
X5.0Y-3.8689
X5.0Y-3.9189
X5.0Y-3.9689
X5.0Y-4.9685
X5.0Y-5.0185
X5.0Y-5.0685
X5.0Y-5.1185
T4
X5.7Y-4.95
X5.7Y-5.05
X5.8Y-4.95
X5.8Y-5.05
X5.9Y-4.95
X5.9Y-5.05
X6.0Y-4.95
X6.0Y-5.05
T5
X7.6165Y-4.9591
X7.6165Y-5.1591
X7.7165Y-5.0591
X7.8165Y-4.9591
X7.8165Y-5.1591
X7.6165Y-4.0535
X7.6165Y-4.2535
X7.7165Y-4.1535
X7.8165Y-4.0535
X7.8165Y-4.2535
T2
G00X4.7965Y-4.2984
M15
G01X4.7728Y-4.2984
M16
G05
G00X4.7965Y-4.6386
M15
G01X4.7728Y-4.6386
M16
G05
G00X4.9709Y-4.2984
M15
G01X4.9276Y-4.2984
M16
G05
G00X4.9709Y-4.6386
M15
G01X4.9276Y-4.6386
M16
G05
T0
M30
