G04 #@! TF.GenerationSoftware,KiCad,Pcbnew,5.1.8-db9833491~87~ubuntu20.04.1*
G04 #@! TF.CreationDate,2020-11-19T11:44:44+01:00*
G04 #@! TF.ProjectId,daisy,64616973-792e-46b6-9963-61645f706362,v1.0*
G04 #@! TF.SameCoordinates,Original*
G04 #@! TF.FileFunction,Copper,L2,Bot*
G04 #@! TF.FilePolarity,Positive*
%FSLAX46Y46*%
G04 Gerber Fmt 4.6, Leading zero omitted, Abs format (unit mm)*
G04 Created by KiCad (PCBNEW 5.1.8-db9833491~87~ubuntu20.04.1) date 2020-11-19 11:44:44*
%MOMM*%
%LPD*%
G01*
G04 APERTURE LIST*
G04 #@! TA.AperFunction,ComponentPad*
%ADD10C,2.250000*%
G04 #@! TD*
G04 #@! TA.AperFunction,ComponentPad*
%ADD11O,1.600000X1.000000*%
G04 #@! TD*
G04 #@! TA.AperFunction,ComponentPad*
%ADD12O,2.100000X1.000000*%
G04 #@! TD*
G04 #@! TA.AperFunction,ComponentPad*
%ADD13O,1.800000X1.070000*%
G04 #@! TD*
G04 #@! TA.AperFunction,ComponentPad*
%ADD14R,1.800000X1.070000*%
G04 #@! TD*
G04 #@! TA.AperFunction,ComponentPad*
%ADD15R,1.700000X1.700000*%
G04 #@! TD*
G04 #@! TA.AperFunction,ComponentPad*
%ADD16O,1.700000X1.700000*%
G04 #@! TD*
G04 #@! TA.AperFunction,ViaPad*
%ADD17C,0.600000*%
G04 #@! TD*
G04 #@! TA.AperFunction,ViaPad*
%ADD18C,0.800000*%
G04 #@! TD*
G04 #@! TA.AperFunction,Conductor*
%ADD19C,0.500000*%
G04 #@! TD*
G04 #@! TA.AperFunction,Conductor*
%ADD20C,0.250000*%
G04 #@! TD*
G04 #@! TA.AperFunction,Conductor*
%ADD21C,0.254000*%
G04 #@! TD*
G04 #@! TA.AperFunction,Conductor*
%ADD22C,0.100000*%
G04 #@! TD*
G04 APERTURE END LIST*
D10*
X196000000Y-128500000D03*
X193460000Y-131040000D03*
X198540000Y-131040000D03*
X198540000Y-125960000D03*
X193460000Y-125960000D03*
X196000000Y-105500000D03*
X193460000Y-108040000D03*
X198540000Y-108040000D03*
X198540000Y-102960000D03*
X193460000Y-102960000D03*
D11*
X121530000Y-117820000D03*
X121530000Y-109180000D03*
D12*
X125710000Y-109180000D03*
X125710000Y-117820000D03*
D13*
X127000000Y-100810000D03*
X127000000Y-99540000D03*
X127000000Y-98270000D03*
D14*
X127000000Y-97000000D03*
X127000000Y-126200000D03*
D13*
X127000000Y-127470000D03*
X127000000Y-128740000D03*
X127000000Y-130010000D03*
D15*
X152400000Y-125730000D03*
D16*
X152400000Y-128270000D03*
X149860000Y-125730000D03*
X149860000Y-128270000D03*
X147320000Y-125730000D03*
X147320000Y-128270000D03*
X144780000Y-125730000D03*
X144780000Y-128270000D03*
D17*
X130530002Y-113500000D03*
D18*
X127800000Y-122050000D03*
X135000000Y-122050000D03*
D17*
X144050006Y-112750000D03*
D18*
X138160000Y-107439998D03*
X143830000Y-119560000D03*
X134930000Y-116330000D03*
X150000001Y-112230000D03*
X189500000Y-132850000D03*
X186950000Y-132850000D03*
X189500000Y-117150012D03*
X188249974Y-117150000D03*
X186950000Y-117150000D03*
X180100000Y-117150000D03*
X172499998Y-117150000D03*
X173750000Y-117150000D03*
X189499998Y-94150000D03*
X188250002Y-94150000D03*
X186950000Y-94150000D03*
X181400000Y-94150000D03*
X180100000Y-94150010D03*
X186950000Y-109850000D03*
X189500000Y-109849996D03*
X181374990Y-117150000D03*
X178049990Y-116500000D03*
X178050000Y-93500000D03*
X173750000Y-94149994D03*
X172500000Y-94150000D03*
X172510002Y-107140000D03*
X172500000Y-130139998D03*
X131430000Y-121190000D03*
X131879999Y-116100000D03*
X131879990Y-110900000D03*
X149990000Y-113740000D03*
X142839998Y-121060000D03*
D17*
X127800000Y-115900000D03*
X128340000Y-113500000D03*
X127800000Y-111100000D03*
D18*
X137400000Y-118700000D03*
X135600000Y-118700000D03*
D17*
X176939996Y-109760000D03*
X178230000Y-109760001D03*
D19*
X127800000Y-115900000D02*
X128340000Y-115360000D01*
X128340000Y-113924264D02*
X128340000Y-113500000D01*
X128340000Y-115360000D02*
X128340000Y-113924264D01*
X128340000Y-113075736D02*
X128340000Y-113500000D01*
X127800000Y-111100000D02*
X128340000Y-111640000D01*
X128340000Y-111640000D02*
X128340000Y-113075736D01*
D20*
X135600000Y-118700000D02*
X137400000Y-118700000D01*
X177805736Y-109760001D02*
X178230000Y-109760001D01*
X176939996Y-109760000D02*
X177805736Y-109760001D01*
D21*
X199315000Y-101379813D02*
X199163160Y-101304911D01*
X198828295Y-101215140D01*
X198482350Y-101192424D01*
X198138620Y-101237634D01*
X197810315Y-101349034D01*
X197605921Y-101458286D01*
X197495074Y-101735469D01*
X198540000Y-102780395D01*
X198554143Y-102766253D01*
X198733748Y-102945858D01*
X198719605Y-102960000D01*
X198733748Y-102974143D01*
X198554143Y-103153748D01*
X198540000Y-103139605D01*
X197495074Y-104184531D01*
X197605921Y-104461714D01*
X197916840Y-104615089D01*
X198251705Y-104704860D01*
X198597650Y-104727576D01*
X198941380Y-104682366D01*
X199269685Y-104570966D01*
X199315000Y-104546744D01*
X199315000Y-106459813D01*
X199163160Y-106384911D01*
X198828295Y-106295140D01*
X198482350Y-106272424D01*
X198138620Y-106317634D01*
X197810315Y-106429034D01*
X197605921Y-106538286D01*
X197495074Y-106815469D01*
X198540000Y-107860395D01*
X198554143Y-107846253D01*
X198733748Y-108025858D01*
X198719605Y-108040000D01*
X198733748Y-108054143D01*
X198554143Y-108233748D01*
X198540000Y-108219605D01*
X197495074Y-109264531D01*
X197605921Y-109541714D01*
X197916840Y-109695089D01*
X198251705Y-109784860D01*
X198597650Y-109807576D01*
X198941380Y-109762366D01*
X199269685Y-109650966D01*
X199315000Y-109626744D01*
X199315001Y-124379813D01*
X199163160Y-124304911D01*
X198828295Y-124215140D01*
X198482350Y-124192424D01*
X198138620Y-124237634D01*
X197810315Y-124349034D01*
X197605921Y-124458286D01*
X197495074Y-124735469D01*
X198540000Y-125780395D01*
X198554143Y-125766253D01*
X198733748Y-125945858D01*
X198719605Y-125960000D01*
X198733748Y-125974143D01*
X198554143Y-126153748D01*
X198540000Y-126139605D01*
X197495074Y-127184531D01*
X197605921Y-127461714D01*
X197916840Y-127615089D01*
X198251705Y-127704860D01*
X198597650Y-127727576D01*
X198941380Y-127682366D01*
X199269685Y-127570966D01*
X199315001Y-127546744D01*
X199315001Y-129459813D01*
X199163160Y-129384911D01*
X198828295Y-129295140D01*
X198482350Y-129272424D01*
X198138620Y-129317634D01*
X197810315Y-129429034D01*
X197605921Y-129538286D01*
X197495074Y-129815469D01*
X198540000Y-130860395D01*
X198554143Y-130846253D01*
X198733748Y-131025858D01*
X198719605Y-131040000D01*
X198733748Y-131054143D01*
X198554143Y-131233748D01*
X198540000Y-131219605D01*
X197495074Y-132264531D01*
X197605921Y-132541714D01*
X197916840Y-132695089D01*
X198251705Y-132784860D01*
X198597650Y-132807576D01*
X198941380Y-132762366D01*
X199269685Y-132650966D01*
X199315001Y-132626744D01*
X199315001Y-136315000D01*
X120685000Y-136315000D01*
X120685000Y-132264531D01*
X192415074Y-132264531D01*
X192525921Y-132541714D01*
X192836840Y-132695089D01*
X193171705Y-132784860D01*
X193517650Y-132807576D01*
X193861380Y-132762366D01*
X194189685Y-132650966D01*
X194394079Y-132541714D01*
X194504926Y-132264531D01*
X193460000Y-131219605D01*
X192415074Y-132264531D01*
X120685000Y-132264531D01*
X120685000Y-128740000D01*
X125459339Y-128740000D01*
X125481929Y-128969360D01*
X125548831Y-129189906D01*
X125647766Y-129375000D01*
X125548831Y-129560094D01*
X125481929Y-129780640D01*
X125459339Y-130010000D01*
X125481929Y-130239360D01*
X125548831Y-130459906D01*
X125657474Y-130663162D01*
X125803682Y-130841318D01*
X125981838Y-130987526D01*
X126185094Y-131096169D01*
X126405640Y-131163071D01*
X126577523Y-131180000D01*
X127422477Y-131180000D01*
X127594360Y-131163071D01*
X127810023Y-131097650D01*
X191692424Y-131097650D01*
X191737634Y-131441380D01*
X191849034Y-131769685D01*
X191958286Y-131974079D01*
X192235469Y-132084926D01*
X193280395Y-131040000D01*
X193639605Y-131040000D01*
X194684531Y-132084926D01*
X194961714Y-131974079D01*
X195115089Y-131663160D01*
X195204860Y-131328295D01*
X195220004Y-131097650D01*
X196772424Y-131097650D01*
X196817634Y-131441380D01*
X196929034Y-131769685D01*
X197038286Y-131974079D01*
X197315469Y-132084926D01*
X198360395Y-131040000D01*
X197315469Y-129995074D01*
X197038286Y-130105921D01*
X196884911Y-130416840D01*
X196795140Y-130751705D01*
X196772424Y-131097650D01*
X195220004Y-131097650D01*
X195227576Y-130982350D01*
X195182366Y-130638620D01*
X195070966Y-130310315D01*
X194961714Y-130105921D01*
X194684531Y-129995074D01*
X193639605Y-131040000D01*
X193280395Y-131040000D01*
X192235469Y-129995074D01*
X191958286Y-130105921D01*
X191804911Y-130416840D01*
X191715140Y-130751705D01*
X191692424Y-131097650D01*
X127810023Y-131097650D01*
X127814906Y-131096169D01*
X128018162Y-130987526D01*
X128196318Y-130841318D01*
X128342526Y-130663162D01*
X128451169Y-130459906D01*
X128518071Y-130239360D01*
X128540661Y-130010000D01*
X128521502Y-129815469D01*
X192415074Y-129815469D01*
X193460000Y-130860395D01*
X194504926Y-129815469D01*
X194394079Y-129538286D01*
X194083160Y-129384911D01*
X193748295Y-129295140D01*
X193402350Y-129272424D01*
X193058620Y-129317634D01*
X192730315Y-129429034D01*
X192525921Y-129538286D01*
X192415074Y-129815469D01*
X128521502Y-129815469D01*
X128518071Y-129780640D01*
X128451169Y-129560094D01*
X128352234Y-129375000D01*
X128451169Y-129189906D01*
X128518071Y-128969360D01*
X128540661Y-128740000D01*
X128518071Y-128510640D01*
X128451169Y-128290094D01*
X128350846Y-128102404D01*
X128408377Y-128014421D01*
X128493900Y-127777383D01*
X128368244Y-127597000D01*
X127627560Y-127597000D01*
X127594360Y-127586929D01*
X127422477Y-127570000D01*
X126577523Y-127570000D01*
X126405640Y-127586929D01*
X126372440Y-127597000D01*
X125631756Y-127597000D01*
X125506100Y-127777383D01*
X125591623Y-128014421D01*
X125649154Y-128102404D01*
X125548831Y-128290094D01*
X125481929Y-128510640D01*
X125459339Y-128740000D01*
X120685000Y-128740000D01*
X120685000Y-125665000D01*
X125461928Y-125665000D01*
X125461928Y-126735000D01*
X125474188Y-126859482D01*
X125510498Y-126979180D01*
X125547385Y-127048190D01*
X125506100Y-127162617D01*
X125631756Y-127343000D01*
X125916800Y-127343000D01*
X125975518Y-127360812D01*
X126100000Y-127373072D01*
X127900000Y-127373072D01*
X128024482Y-127360812D01*
X128083200Y-127343000D01*
X128368244Y-127343000D01*
X128493900Y-127162617D01*
X128452615Y-127048190D01*
X128489502Y-126979180D01*
X128525812Y-126859482D01*
X128538072Y-126735000D01*
X128538072Y-125665000D01*
X128530069Y-125583740D01*
X143295000Y-125583740D01*
X143295000Y-125876260D01*
X143352068Y-126163158D01*
X143464010Y-126433411D01*
X143626525Y-126676632D01*
X143833368Y-126883475D01*
X144007760Y-127000000D01*
X143833368Y-127116525D01*
X143626525Y-127323368D01*
X143464010Y-127566589D01*
X143352068Y-127836842D01*
X143295000Y-128123740D01*
X143295000Y-128416260D01*
X143352068Y-128703158D01*
X143464010Y-128973411D01*
X143626525Y-129216632D01*
X143833368Y-129423475D01*
X144076589Y-129585990D01*
X144346842Y-129697932D01*
X144633740Y-129755000D01*
X144926260Y-129755000D01*
X145213158Y-129697932D01*
X145483411Y-129585990D01*
X145726632Y-129423475D01*
X145933475Y-129216632D01*
X146050000Y-129042240D01*
X146166525Y-129216632D01*
X146373368Y-129423475D01*
X146616589Y-129585990D01*
X146886842Y-129697932D01*
X147173740Y-129755000D01*
X147466260Y-129755000D01*
X147753158Y-129697932D01*
X148023411Y-129585990D01*
X148266632Y-129423475D01*
X148473475Y-129216632D01*
X148595195Y-129034466D01*
X148664822Y-129151355D01*
X148859731Y-129367588D01*
X149093080Y-129541641D01*
X149355901Y-129666825D01*
X149503110Y-129711476D01*
X149733000Y-129590155D01*
X149733000Y-128397000D01*
X149713000Y-128397000D01*
X149713000Y-128143000D01*
X149733000Y-128143000D01*
X149733000Y-125857000D01*
X149713000Y-125857000D01*
X149713000Y-125603000D01*
X149733000Y-125603000D01*
X149733000Y-124409845D01*
X149987000Y-124409845D01*
X149987000Y-125603000D01*
X150007000Y-125603000D01*
X150007000Y-125857000D01*
X149987000Y-125857000D01*
X149987000Y-128143000D01*
X150007000Y-128143000D01*
X150007000Y-128397000D01*
X149987000Y-128397000D01*
X149987000Y-129590155D01*
X150216890Y-129711476D01*
X150364099Y-129666825D01*
X150626920Y-129541641D01*
X150860269Y-129367588D01*
X151055178Y-129151355D01*
X151124805Y-129034466D01*
X151246525Y-129216632D01*
X151453368Y-129423475D01*
X151696589Y-129585990D01*
X151966842Y-129697932D01*
X152253740Y-129755000D01*
X152546260Y-129755000D01*
X152833158Y-129697932D01*
X153103411Y-129585990D01*
X153346632Y-129423475D01*
X153553475Y-129216632D01*
X153715990Y-128973411D01*
X153827932Y-128703158D01*
X153885000Y-128416260D01*
X153885000Y-128326655D01*
X194240000Y-128326655D01*
X194240000Y-128673345D01*
X194307636Y-129013373D01*
X194440308Y-129333673D01*
X194632919Y-129621935D01*
X194878065Y-129867081D01*
X195166327Y-130059692D01*
X195486627Y-130192364D01*
X195826655Y-130260000D01*
X196173345Y-130260000D01*
X196513373Y-130192364D01*
X196833673Y-130059692D01*
X197121935Y-129867081D01*
X197367081Y-129621935D01*
X197559692Y-129333673D01*
X197692364Y-129013373D01*
X197760000Y-128673345D01*
X197760000Y-128326655D01*
X197692364Y-127986627D01*
X197559692Y-127666327D01*
X197367081Y-127378065D01*
X197121935Y-127132919D01*
X196833673Y-126940308D01*
X196513373Y-126807636D01*
X196173345Y-126740000D01*
X195826655Y-126740000D01*
X195486627Y-126807636D01*
X195166327Y-126940308D01*
X194878065Y-127132919D01*
X194632919Y-127378065D01*
X194440308Y-127666327D01*
X194307636Y-127986627D01*
X194240000Y-128326655D01*
X153885000Y-128326655D01*
X153885000Y-128123740D01*
X153827932Y-127836842D01*
X153715990Y-127566589D01*
X153553475Y-127323368D01*
X153421620Y-127191513D01*
X153444636Y-127184531D01*
X192415074Y-127184531D01*
X192525921Y-127461714D01*
X192836840Y-127615089D01*
X193171705Y-127704860D01*
X193517650Y-127727576D01*
X193861380Y-127682366D01*
X194189685Y-127570966D01*
X194394079Y-127461714D01*
X194504926Y-127184531D01*
X193460000Y-126139605D01*
X192415074Y-127184531D01*
X153444636Y-127184531D01*
X153494180Y-127169502D01*
X153604494Y-127110537D01*
X153701185Y-127031185D01*
X153780537Y-126934494D01*
X153839502Y-126824180D01*
X153875812Y-126704482D01*
X153888072Y-126580000D01*
X153888072Y-126017650D01*
X191692424Y-126017650D01*
X191737634Y-126361380D01*
X191849034Y-126689685D01*
X191958286Y-126894079D01*
X192235469Y-127004926D01*
X193280395Y-125960000D01*
X193639605Y-125960000D01*
X194684531Y-127004926D01*
X194961714Y-126894079D01*
X195115089Y-126583160D01*
X195204860Y-126248295D01*
X195220004Y-126017650D01*
X196772424Y-126017650D01*
X196817634Y-126361380D01*
X196929034Y-126689685D01*
X197038286Y-126894079D01*
X197315469Y-127004926D01*
X198360395Y-125960000D01*
X197315469Y-124915074D01*
X197038286Y-125025921D01*
X196884911Y-125336840D01*
X196795140Y-125671705D01*
X196772424Y-126017650D01*
X195220004Y-126017650D01*
X195227576Y-125902350D01*
X195182366Y-125558620D01*
X195070966Y-125230315D01*
X194961714Y-125025921D01*
X194684531Y-124915074D01*
X193639605Y-125960000D01*
X193280395Y-125960000D01*
X192235469Y-124915074D01*
X191958286Y-125025921D01*
X191804911Y-125336840D01*
X191715140Y-125671705D01*
X191692424Y-126017650D01*
X153888072Y-126017650D01*
X153888072Y-124880000D01*
X153875812Y-124755518D01*
X153869731Y-124735469D01*
X192415074Y-124735469D01*
X193460000Y-125780395D01*
X194504926Y-124735469D01*
X194394079Y-124458286D01*
X194083160Y-124304911D01*
X193748295Y-124215140D01*
X193402350Y-124192424D01*
X193058620Y-124237634D01*
X192730315Y-124349034D01*
X192525921Y-124458286D01*
X192415074Y-124735469D01*
X153869731Y-124735469D01*
X153839502Y-124635820D01*
X153780537Y-124525506D01*
X153701185Y-124428815D01*
X153604494Y-124349463D01*
X153494180Y-124290498D01*
X153374482Y-124254188D01*
X153250000Y-124241928D01*
X151550000Y-124241928D01*
X151425518Y-124254188D01*
X151305820Y-124290498D01*
X151195506Y-124349463D01*
X151098815Y-124428815D01*
X151019463Y-124525506D01*
X150960498Y-124635820D01*
X150936034Y-124716466D01*
X150860269Y-124632412D01*
X150626920Y-124458359D01*
X150364099Y-124333175D01*
X150216890Y-124288524D01*
X149987000Y-124409845D01*
X149733000Y-124409845D01*
X149503110Y-124288524D01*
X149355901Y-124333175D01*
X149093080Y-124458359D01*
X148859731Y-124632412D01*
X148664822Y-124848645D01*
X148595195Y-124965534D01*
X148473475Y-124783368D01*
X148266632Y-124576525D01*
X148023411Y-124414010D01*
X147753158Y-124302068D01*
X147466260Y-124245000D01*
X147173740Y-124245000D01*
X146886842Y-124302068D01*
X146616589Y-124414010D01*
X146373368Y-124576525D01*
X146166525Y-124783368D01*
X146050000Y-124957760D01*
X145933475Y-124783368D01*
X145726632Y-124576525D01*
X145483411Y-124414010D01*
X145213158Y-124302068D01*
X144926260Y-124245000D01*
X144633740Y-124245000D01*
X144346842Y-124302068D01*
X144076589Y-124414010D01*
X143833368Y-124576525D01*
X143626525Y-124783368D01*
X143464010Y-125026589D01*
X143352068Y-125296842D01*
X143295000Y-125583740D01*
X128530069Y-125583740D01*
X128525812Y-125540518D01*
X128489502Y-125420820D01*
X128430537Y-125310506D01*
X128351185Y-125213815D01*
X128254494Y-125134463D01*
X128144180Y-125075498D01*
X128024482Y-125039188D01*
X127900000Y-125026928D01*
X126100000Y-125026928D01*
X125975518Y-125039188D01*
X125855820Y-125075498D01*
X125745506Y-125134463D01*
X125648815Y-125213815D01*
X125569463Y-125310506D01*
X125510498Y-125420820D01*
X125474188Y-125540518D01*
X125461928Y-125665000D01*
X120685000Y-125665000D01*
X120685000Y-118822873D01*
X120884013Y-118908415D01*
X121103000Y-118955000D01*
X121403000Y-118955000D01*
X121403000Y-117947000D01*
X121657000Y-117947000D01*
X121657000Y-118955000D01*
X121957000Y-118955000D01*
X122175987Y-118908415D01*
X122381678Y-118820003D01*
X122566169Y-118693161D01*
X122722369Y-118532764D01*
X122844276Y-118344976D01*
X122924119Y-118121874D01*
X124065881Y-118121874D01*
X124145724Y-118344976D01*
X124267631Y-118532764D01*
X124423831Y-118693161D01*
X124608322Y-118820003D01*
X124814013Y-118908415D01*
X125033000Y-118955000D01*
X125583000Y-118955000D01*
X125583000Y-117947000D01*
X125837000Y-117947000D01*
X125837000Y-118955000D01*
X126387000Y-118955000D01*
X126605987Y-118908415D01*
X126811678Y-118820003D01*
X126996169Y-118693161D01*
X127088780Y-118598061D01*
X134565000Y-118598061D01*
X134565000Y-118801939D01*
X134604774Y-119001898D01*
X134682795Y-119190256D01*
X134796063Y-119359774D01*
X134940226Y-119503937D01*
X135109744Y-119617205D01*
X135298102Y-119695226D01*
X135498061Y-119735000D01*
X135701939Y-119735000D01*
X135901898Y-119695226D01*
X136090256Y-119617205D01*
X136259774Y-119503937D01*
X136303711Y-119460000D01*
X136696289Y-119460000D01*
X136740226Y-119503937D01*
X136909744Y-119617205D01*
X137098102Y-119695226D01*
X137298061Y-119735000D01*
X137501939Y-119735000D01*
X137701898Y-119695226D01*
X137890256Y-119617205D01*
X138059774Y-119503937D01*
X138203937Y-119359774D01*
X138317205Y-119190256D01*
X138395226Y-119001898D01*
X138435000Y-118801939D01*
X138435000Y-118598061D01*
X138395226Y-118398102D01*
X138317205Y-118209744D01*
X138203937Y-118040226D01*
X138059774Y-117896063D01*
X137890256Y-117782795D01*
X137701898Y-117704774D01*
X137501939Y-117665000D01*
X137298061Y-117665000D01*
X137098102Y-117704774D01*
X136909744Y-117782795D01*
X136740226Y-117896063D01*
X136696289Y-117940000D01*
X136303711Y-117940000D01*
X136259774Y-117896063D01*
X136090256Y-117782795D01*
X135901898Y-117704774D01*
X135701939Y-117665000D01*
X135498061Y-117665000D01*
X135298102Y-117704774D01*
X135109744Y-117782795D01*
X134940226Y-117896063D01*
X134796063Y-118040226D01*
X134682795Y-118209744D01*
X134604774Y-118398102D01*
X134565000Y-118598061D01*
X127088780Y-118598061D01*
X127152369Y-118532764D01*
X127274276Y-118344976D01*
X127354119Y-118121874D01*
X127227954Y-117947000D01*
X125837000Y-117947000D01*
X125583000Y-117947000D01*
X124192046Y-117947000D01*
X124065881Y-118121874D01*
X122924119Y-118121874D01*
X122797954Y-117947000D01*
X121657000Y-117947000D01*
X121403000Y-117947000D01*
X121383000Y-117947000D01*
X121383000Y-117693000D01*
X121403000Y-117693000D01*
X121403000Y-116685000D01*
X121657000Y-116685000D01*
X121657000Y-117693000D01*
X122797954Y-117693000D01*
X122924119Y-117518126D01*
X124065881Y-117518126D01*
X124192046Y-117693000D01*
X125583000Y-117693000D01*
X125583000Y-117673000D01*
X125837000Y-117673000D01*
X125837000Y-117693000D01*
X127227954Y-117693000D01*
X127354119Y-117518126D01*
X127274276Y-117295024D01*
X127152369Y-117107236D01*
X126996169Y-116946839D01*
X126811678Y-116819997D01*
X126605987Y-116731585D01*
X126387000Y-116685000D01*
X126096904Y-116685000D01*
X126103108Y-116670022D01*
X126140000Y-116484552D01*
X126140000Y-116295448D01*
X126103108Y-116109978D01*
X126030741Y-115935269D01*
X125925681Y-115778036D01*
X125791964Y-115644319D01*
X125634731Y-115539259D01*
X125460022Y-115466892D01*
X125274552Y-115430000D01*
X125085448Y-115430000D01*
X124899978Y-115466892D01*
X124725269Y-115539259D01*
X124568036Y-115644319D01*
X124434319Y-115778036D01*
X124329259Y-115935269D01*
X124256892Y-116109978D01*
X124220000Y-116295448D01*
X124220000Y-116484552D01*
X124256892Y-116670022D01*
X124329259Y-116844731D01*
X124408206Y-116962884D01*
X124267631Y-117107236D01*
X124145724Y-117295024D01*
X124065881Y-117518126D01*
X122924119Y-117518126D01*
X122844276Y-117295024D01*
X122722369Y-117107236D01*
X122566169Y-116946839D01*
X122381678Y-116819997D01*
X122175987Y-116731585D01*
X121957000Y-116685000D01*
X121657000Y-116685000D01*
X121403000Y-116685000D01*
X121103000Y-116685000D01*
X120884013Y-116731585D01*
X120685000Y-116817127D01*
X120685000Y-110182873D01*
X120884013Y-110268415D01*
X121103000Y-110315000D01*
X121403000Y-110315000D01*
X121403000Y-109307000D01*
X121657000Y-109307000D01*
X121657000Y-110315000D01*
X121957000Y-110315000D01*
X122175987Y-110268415D01*
X122381678Y-110180003D01*
X122566169Y-110053161D01*
X122722369Y-109892764D01*
X122844276Y-109704976D01*
X122924119Y-109481874D01*
X124065881Y-109481874D01*
X124145724Y-109704976D01*
X124267631Y-109892764D01*
X124408206Y-110037116D01*
X124329259Y-110155269D01*
X124256892Y-110329978D01*
X124220000Y-110515448D01*
X124220000Y-110704552D01*
X124256892Y-110890022D01*
X124329259Y-111064731D01*
X124434319Y-111221964D01*
X124568036Y-111355681D01*
X124725269Y-111460741D01*
X124899978Y-111533108D01*
X125085448Y-111570000D01*
X125274552Y-111570000D01*
X125460022Y-111533108D01*
X125634731Y-111460741D01*
X125791964Y-111355681D01*
X125925681Y-111221964D01*
X126030741Y-111064731D01*
X126054276Y-111007911D01*
X126865000Y-111007911D01*
X126865000Y-111192089D01*
X126900932Y-111372729D01*
X126971414Y-111542889D01*
X127073738Y-111696028D01*
X127203972Y-111826262D01*
X127357111Y-111928586D01*
X127391077Y-111942655D01*
X127455000Y-112006578D01*
X127455001Y-113032250D01*
X127455000Y-113032260D01*
X127455000Y-113193308D01*
X127440932Y-113227271D01*
X127405000Y-113407911D01*
X127405000Y-113592089D01*
X127440932Y-113772729D01*
X127455000Y-113806692D01*
X127455000Y-113967740D01*
X127455001Y-113967750D01*
X127455000Y-114993422D01*
X127391077Y-115057345D01*
X127357111Y-115071414D01*
X127203972Y-115173738D01*
X127073738Y-115303972D01*
X126971414Y-115457111D01*
X126900932Y-115627271D01*
X126865000Y-115807911D01*
X126865000Y-115992089D01*
X126900932Y-116172729D01*
X126971414Y-116342889D01*
X127073738Y-116496028D01*
X127203972Y-116626262D01*
X127357111Y-116728586D01*
X127527271Y-116799068D01*
X127707911Y-116835000D01*
X127892089Y-116835000D01*
X128072729Y-116799068D01*
X128242889Y-116728586D01*
X128396028Y-116626262D01*
X128526262Y-116496028D01*
X128628586Y-116342889D01*
X128642655Y-116308923D01*
X128935045Y-116016533D01*
X128968817Y-115988817D01*
X129079411Y-115854059D01*
X129161589Y-115700313D01*
X129212195Y-115533490D01*
X129225000Y-115403477D01*
X129225000Y-115403467D01*
X129229281Y-115360001D01*
X129225000Y-115316535D01*
X129225000Y-113806692D01*
X129239068Y-113772729D01*
X129275000Y-113592089D01*
X129275000Y-113407911D01*
X129239068Y-113227271D01*
X129225000Y-113193308D01*
X129225000Y-111683465D01*
X129229281Y-111639999D01*
X129225000Y-111596533D01*
X129225000Y-111596523D01*
X129212195Y-111466510D01*
X129161589Y-111299687D01*
X129079411Y-111145941D01*
X128968817Y-111011183D01*
X128935045Y-110983467D01*
X128642655Y-110691077D01*
X128628586Y-110657111D01*
X128526262Y-110503972D01*
X128396028Y-110373738D01*
X128242889Y-110271414D01*
X128072729Y-110200932D01*
X127892089Y-110165000D01*
X127707911Y-110165000D01*
X127527271Y-110200932D01*
X127357111Y-110271414D01*
X127203972Y-110373738D01*
X127073738Y-110503972D01*
X126971414Y-110657111D01*
X126900932Y-110827271D01*
X126865000Y-111007911D01*
X126054276Y-111007911D01*
X126103108Y-110890022D01*
X126140000Y-110704552D01*
X126140000Y-110515448D01*
X126103108Y-110329978D01*
X126096904Y-110315000D01*
X126387000Y-110315000D01*
X126605987Y-110268415D01*
X126811678Y-110180003D01*
X126996169Y-110053161D01*
X127152369Y-109892764D01*
X127274276Y-109704976D01*
X127287540Y-109667911D01*
X176004996Y-109667911D01*
X176004996Y-109852089D01*
X176040928Y-110032729D01*
X176111410Y-110202889D01*
X176213734Y-110356028D01*
X176343968Y-110486262D01*
X176497107Y-110588586D01*
X176667267Y-110659068D01*
X176847907Y-110695000D01*
X177032085Y-110695000D01*
X177212725Y-110659068D01*
X177382885Y-110588586D01*
X177485531Y-110520000D01*
X177684464Y-110520001D01*
X177787111Y-110588587D01*
X177957271Y-110659069D01*
X178137911Y-110695001D01*
X178322089Y-110695001D01*
X178502729Y-110659069D01*
X178672889Y-110588587D01*
X178826028Y-110486263D01*
X178956262Y-110356029D01*
X179058586Y-110202890D01*
X179129068Y-110032730D01*
X179165000Y-109852090D01*
X179165000Y-109667912D01*
X179129068Y-109487272D01*
X179058586Y-109317112D01*
X179023453Y-109264531D01*
X192415074Y-109264531D01*
X192525921Y-109541714D01*
X192836840Y-109695089D01*
X193171705Y-109784860D01*
X193517650Y-109807576D01*
X193861380Y-109762366D01*
X194189685Y-109650966D01*
X194394079Y-109541714D01*
X194504926Y-109264531D01*
X193460000Y-108219605D01*
X192415074Y-109264531D01*
X179023453Y-109264531D01*
X178956262Y-109163973D01*
X178826028Y-109033739D01*
X178672889Y-108931415D01*
X178502729Y-108860933D01*
X178322089Y-108825001D01*
X178137911Y-108825001D01*
X177957271Y-108860933D01*
X177787111Y-108931415D01*
X177684464Y-109000002D01*
X177485533Y-109000001D01*
X177382885Y-108931414D01*
X177212725Y-108860932D01*
X177032085Y-108825000D01*
X176847907Y-108825000D01*
X176667267Y-108860932D01*
X176497107Y-108931414D01*
X176343968Y-109033738D01*
X176213734Y-109163972D01*
X176111410Y-109317111D01*
X176040928Y-109487271D01*
X176004996Y-109667911D01*
X127287540Y-109667911D01*
X127354119Y-109481874D01*
X127227954Y-109307000D01*
X125837000Y-109307000D01*
X125837000Y-109327000D01*
X125583000Y-109327000D01*
X125583000Y-109307000D01*
X124192046Y-109307000D01*
X124065881Y-109481874D01*
X122924119Y-109481874D01*
X122797954Y-109307000D01*
X121657000Y-109307000D01*
X121403000Y-109307000D01*
X121383000Y-109307000D01*
X121383000Y-109053000D01*
X121403000Y-109053000D01*
X121403000Y-108045000D01*
X121657000Y-108045000D01*
X121657000Y-109053000D01*
X122797954Y-109053000D01*
X122924119Y-108878126D01*
X124065881Y-108878126D01*
X124192046Y-109053000D01*
X125583000Y-109053000D01*
X125583000Y-108045000D01*
X125837000Y-108045000D01*
X125837000Y-109053000D01*
X127227954Y-109053000D01*
X127354119Y-108878126D01*
X127274276Y-108655024D01*
X127152369Y-108467236D01*
X126996169Y-108306839D01*
X126811678Y-108179997D01*
X126620098Y-108097650D01*
X191692424Y-108097650D01*
X191737634Y-108441380D01*
X191849034Y-108769685D01*
X191958286Y-108974079D01*
X192235469Y-109084926D01*
X193280395Y-108040000D01*
X193639605Y-108040000D01*
X194684531Y-109084926D01*
X194961714Y-108974079D01*
X195115089Y-108663160D01*
X195204860Y-108328295D01*
X195220004Y-108097650D01*
X196772424Y-108097650D01*
X196817634Y-108441380D01*
X196929034Y-108769685D01*
X197038286Y-108974079D01*
X197315469Y-109084926D01*
X198360395Y-108040000D01*
X197315469Y-106995074D01*
X197038286Y-107105921D01*
X196884911Y-107416840D01*
X196795140Y-107751705D01*
X196772424Y-108097650D01*
X195220004Y-108097650D01*
X195227576Y-107982350D01*
X195182366Y-107638620D01*
X195070966Y-107310315D01*
X194961714Y-107105921D01*
X194684531Y-106995074D01*
X193639605Y-108040000D01*
X193280395Y-108040000D01*
X192235469Y-106995074D01*
X191958286Y-107105921D01*
X191804911Y-107416840D01*
X191715140Y-107751705D01*
X191692424Y-108097650D01*
X126620098Y-108097650D01*
X126605987Y-108091585D01*
X126387000Y-108045000D01*
X125837000Y-108045000D01*
X125583000Y-108045000D01*
X125033000Y-108045000D01*
X124814013Y-108091585D01*
X124608322Y-108179997D01*
X124423831Y-108306839D01*
X124267631Y-108467236D01*
X124145724Y-108655024D01*
X124065881Y-108878126D01*
X122924119Y-108878126D01*
X122844276Y-108655024D01*
X122722369Y-108467236D01*
X122566169Y-108306839D01*
X122381678Y-108179997D01*
X122175987Y-108091585D01*
X121957000Y-108045000D01*
X121657000Y-108045000D01*
X121403000Y-108045000D01*
X121103000Y-108045000D01*
X120884013Y-108091585D01*
X120685000Y-108177127D01*
X120685000Y-106815469D01*
X192415074Y-106815469D01*
X193460000Y-107860395D01*
X194504926Y-106815469D01*
X194394079Y-106538286D01*
X194083160Y-106384911D01*
X193748295Y-106295140D01*
X193402350Y-106272424D01*
X193058620Y-106317634D01*
X192730315Y-106429034D01*
X192525921Y-106538286D01*
X192415074Y-106815469D01*
X120685000Y-106815469D01*
X120685000Y-105326655D01*
X194240000Y-105326655D01*
X194240000Y-105673345D01*
X194307636Y-106013373D01*
X194440308Y-106333673D01*
X194632919Y-106621935D01*
X194878065Y-106867081D01*
X195166327Y-107059692D01*
X195486627Y-107192364D01*
X195826655Y-107260000D01*
X196173345Y-107260000D01*
X196513373Y-107192364D01*
X196833673Y-107059692D01*
X197121935Y-106867081D01*
X197367081Y-106621935D01*
X197559692Y-106333673D01*
X197692364Y-106013373D01*
X197760000Y-105673345D01*
X197760000Y-105326655D01*
X197692364Y-104986627D01*
X197559692Y-104666327D01*
X197367081Y-104378065D01*
X197121935Y-104132919D01*
X196833673Y-103940308D01*
X196513373Y-103807636D01*
X196173345Y-103740000D01*
X195826655Y-103740000D01*
X195486627Y-103807636D01*
X195166327Y-103940308D01*
X194878065Y-104132919D01*
X194632919Y-104378065D01*
X194440308Y-104666327D01*
X194307636Y-104986627D01*
X194240000Y-105326655D01*
X120685000Y-105326655D01*
X120685000Y-104184531D01*
X192415074Y-104184531D01*
X192525921Y-104461714D01*
X192836840Y-104615089D01*
X193171705Y-104704860D01*
X193517650Y-104727576D01*
X193861380Y-104682366D01*
X194189685Y-104570966D01*
X194394079Y-104461714D01*
X194504926Y-104184531D01*
X193460000Y-103139605D01*
X192415074Y-104184531D01*
X120685000Y-104184531D01*
X120685000Y-103017650D01*
X191692424Y-103017650D01*
X191737634Y-103361380D01*
X191849034Y-103689685D01*
X191958286Y-103894079D01*
X192235469Y-104004926D01*
X193280395Y-102960000D01*
X193639605Y-102960000D01*
X194684531Y-104004926D01*
X194961714Y-103894079D01*
X195115089Y-103583160D01*
X195204860Y-103248295D01*
X195220004Y-103017650D01*
X196772424Y-103017650D01*
X196817634Y-103361380D01*
X196929034Y-103689685D01*
X197038286Y-103894079D01*
X197315469Y-104004926D01*
X198360395Y-102960000D01*
X197315469Y-101915074D01*
X197038286Y-102025921D01*
X196884911Y-102336840D01*
X196795140Y-102671705D01*
X196772424Y-103017650D01*
X195220004Y-103017650D01*
X195227576Y-102902350D01*
X195182366Y-102558620D01*
X195070966Y-102230315D01*
X194961714Y-102025921D01*
X194684531Y-101915074D01*
X193639605Y-102960000D01*
X193280395Y-102960000D01*
X192235469Y-101915074D01*
X191958286Y-102025921D01*
X191804911Y-102336840D01*
X191715140Y-102671705D01*
X191692424Y-103017650D01*
X120685000Y-103017650D01*
X120685000Y-99540000D01*
X125459339Y-99540000D01*
X125481929Y-99769360D01*
X125548831Y-99989906D01*
X125647766Y-100175000D01*
X125548831Y-100360094D01*
X125481929Y-100580640D01*
X125459339Y-100810000D01*
X125481929Y-101039360D01*
X125548831Y-101259906D01*
X125657474Y-101463162D01*
X125803682Y-101641318D01*
X125981838Y-101787526D01*
X126185094Y-101896169D01*
X126405640Y-101963071D01*
X126577523Y-101980000D01*
X127422477Y-101980000D01*
X127594360Y-101963071D01*
X127814906Y-101896169D01*
X128018162Y-101787526D01*
X128081594Y-101735469D01*
X192415074Y-101735469D01*
X193460000Y-102780395D01*
X194504926Y-101735469D01*
X194394079Y-101458286D01*
X194083160Y-101304911D01*
X193748295Y-101215140D01*
X193402350Y-101192424D01*
X193058620Y-101237634D01*
X192730315Y-101349034D01*
X192525921Y-101458286D01*
X192415074Y-101735469D01*
X128081594Y-101735469D01*
X128196318Y-101641318D01*
X128342526Y-101463162D01*
X128451169Y-101259906D01*
X128518071Y-101039360D01*
X128540661Y-100810000D01*
X128518071Y-100580640D01*
X128451169Y-100360094D01*
X128352234Y-100175000D01*
X128451169Y-99989906D01*
X128518071Y-99769360D01*
X128540661Y-99540000D01*
X128518071Y-99310640D01*
X128451169Y-99090094D01*
X128350846Y-98902404D01*
X128408377Y-98814421D01*
X128493900Y-98577383D01*
X128368244Y-98397000D01*
X127627560Y-98397000D01*
X127594360Y-98386929D01*
X127422477Y-98370000D01*
X126577523Y-98370000D01*
X126405640Y-98386929D01*
X126372440Y-98397000D01*
X125631756Y-98397000D01*
X125506100Y-98577383D01*
X125591623Y-98814421D01*
X125649154Y-98902404D01*
X125548831Y-99090094D01*
X125481929Y-99310640D01*
X125459339Y-99540000D01*
X120685000Y-99540000D01*
X120685000Y-96465000D01*
X125461928Y-96465000D01*
X125461928Y-97535000D01*
X125474188Y-97659482D01*
X125510498Y-97779180D01*
X125547385Y-97848190D01*
X125506100Y-97962617D01*
X125631756Y-98143000D01*
X125916800Y-98143000D01*
X125975518Y-98160812D01*
X126100000Y-98173072D01*
X127900000Y-98173072D01*
X128024482Y-98160812D01*
X128083200Y-98143000D01*
X128368244Y-98143000D01*
X128493900Y-97962617D01*
X128452615Y-97848190D01*
X128489502Y-97779180D01*
X128525812Y-97659482D01*
X128538072Y-97535000D01*
X128538072Y-96465000D01*
X128525812Y-96340518D01*
X128489502Y-96220820D01*
X128430537Y-96110506D01*
X128351185Y-96013815D01*
X128254494Y-95934463D01*
X128144180Y-95875498D01*
X128024482Y-95839188D01*
X127900000Y-95826928D01*
X126100000Y-95826928D01*
X125975518Y-95839188D01*
X125855820Y-95875498D01*
X125745506Y-95934463D01*
X125648815Y-96013815D01*
X125569463Y-96110506D01*
X125510498Y-96220820D01*
X125474188Y-96340518D01*
X125461928Y-96465000D01*
X120685000Y-96465000D01*
X120685000Y-90685000D01*
X199315000Y-90685000D01*
X199315000Y-101379813D01*
G04 #@! TA.AperFunction,Conductor*
D22*
G36*
X199315000Y-101379813D02*
G01*
X199163160Y-101304911D01*
X198828295Y-101215140D01*
X198482350Y-101192424D01*
X198138620Y-101237634D01*
X197810315Y-101349034D01*
X197605921Y-101458286D01*
X197495074Y-101735469D01*
X198540000Y-102780395D01*
X198554143Y-102766253D01*
X198733748Y-102945858D01*
X198719605Y-102960000D01*
X198733748Y-102974143D01*
X198554143Y-103153748D01*
X198540000Y-103139605D01*
X197495074Y-104184531D01*
X197605921Y-104461714D01*
X197916840Y-104615089D01*
X198251705Y-104704860D01*
X198597650Y-104727576D01*
X198941380Y-104682366D01*
X199269685Y-104570966D01*
X199315000Y-104546744D01*
X199315000Y-106459813D01*
X199163160Y-106384911D01*
X198828295Y-106295140D01*
X198482350Y-106272424D01*
X198138620Y-106317634D01*
X197810315Y-106429034D01*
X197605921Y-106538286D01*
X197495074Y-106815469D01*
X198540000Y-107860395D01*
X198554143Y-107846253D01*
X198733748Y-108025858D01*
X198719605Y-108040000D01*
X198733748Y-108054143D01*
X198554143Y-108233748D01*
X198540000Y-108219605D01*
X197495074Y-109264531D01*
X197605921Y-109541714D01*
X197916840Y-109695089D01*
X198251705Y-109784860D01*
X198597650Y-109807576D01*
X198941380Y-109762366D01*
X199269685Y-109650966D01*
X199315000Y-109626744D01*
X199315001Y-124379813D01*
X199163160Y-124304911D01*
X198828295Y-124215140D01*
X198482350Y-124192424D01*
X198138620Y-124237634D01*
X197810315Y-124349034D01*
X197605921Y-124458286D01*
X197495074Y-124735469D01*
X198540000Y-125780395D01*
X198554143Y-125766253D01*
X198733748Y-125945858D01*
X198719605Y-125960000D01*
X198733748Y-125974143D01*
X198554143Y-126153748D01*
X198540000Y-126139605D01*
X197495074Y-127184531D01*
X197605921Y-127461714D01*
X197916840Y-127615089D01*
X198251705Y-127704860D01*
X198597650Y-127727576D01*
X198941380Y-127682366D01*
X199269685Y-127570966D01*
X199315001Y-127546744D01*
X199315001Y-129459813D01*
X199163160Y-129384911D01*
X198828295Y-129295140D01*
X198482350Y-129272424D01*
X198138620Y-129317634D01*
X197810315Y-129429034D01*
X197605921Y-129538286D01*
X197495074Y-129815469D01*
X198540000Y-130860395D01*
X198554143Y-130846253D01*
X198733748Y-131025858D01*
X198719605Y-131040000D01*
X198733748Y-131054143D01*
X198554143Y-131233748D01*
X198540000Y-131219605D01*
X197495074Y-132264531D01*
X197605921Y-132541714D01*
X197916840Y-132695089D01*
X198251705Y-132784860D01*
X198597650Y-132807576D01*
X198941380Y-132762366D01*
X199269685Y-132650966D01*
X199315001Y-132626744D01*
X199315001Y-136315000D01*
X120685000Y-136315000D01*
X120685000Y-132264531D01*
X192415074Y-132264531D01*
X192525921Y-132541714D01*
X192836840Y-132695089D01*
X193171705Y-132784860D01*
X193517650Y-132807576D01*
X193861380Y-132762366D01*
X194189685Y-132650966D01*
X194394079Y-132541714D01*
X194504926Y-132264531D01*
X193460000Y-131219605D01*
X192415074Y-132264531D01*
X120685000Y-132264531D01*
X120685000Y-128740000D01*
X125459339Y-128740000D01*
X125481929Y-128969360D01*
X125548831Y-129189906D01*
X125647766Y-129375000D01*
X125548831Y-129560094D01*
X125481929Y-129780640D01*
X125459339Y-130010000D01*
X125481929Y-130239360D01*
X125548831Y-130459906D01*
X125657474Y-130663162D01*
X125803682Y-130841318D01*
X125981838Y-130987526D01*
X126185094Y-131096169D01*
X126405640Y-131163071D01*
X126577523Y-131180000D01*
X127422477Y-131180000D01*
X127594360Y-131163071D01*
X127810023Y-131097650D01*
X191692424Y-131097650D01*
X191737634Y-131441380D01*
X191849034Y-131769685D01*
X191958286Y-131974079D01*
X192235469Y-132084926D01*
X193280395Y-131040000D01*
X193639605Y-131040000D01*
X194684531Y-132084926D01*
X194961714Y-131974079D01*
X195115089Y-131663160D01*
X195204860Y-131328295D01*
X195220004Y-131097650D01*
X196772424Y-131097650D01*
X196817634Y-131441380D01*
X196929034Y-131769685D01*
X197038286Y-131974079D01*
X197315469Y-132084926D01*
X198360395Y-131040000D01*
X197315469Y-129995074D01*
X197038286Y-130105921D01*
X196884911Y-130416840D01*
X196795140Y-130751705D01*
X196772424Y-131097650D01*
X195220004Y-131097650D01*
X195227576Y-130982350D01*
X195182366Y-130638620D01*
X195070966Y-130310315D01*
X194961714Y-130105921D01*
X194684531Y-129995074D01*
X193639605Y-131040000D01*
X193280395Y-131040000D01*
X192235469Y-129995074D01*
X191958286Y-130105921D01*
X191804911Y-130416840D01*
X191715140Y-130751705D01*
X191692424Y-131097650D01*
X127810023Y-131097650D01*
X127814906Y-131096169D01*
X128018162Y-130987526D01*
X128196318Y-130841318D01*
X128342526Y-130663162D01*
X128451169Y-130459906D01*
X128518071Y-130239360D01*
X128540661Y-130010000D01*
X128521502Y-129815469D01*
X192415074Y-129815469D01*
X193460000Y-130860395D01*
X194504926Y-129815469D01*
X194394079Y-129538286D01*
X194083160Y-129384911D01*
X193748295Y-129295140D01*
X193402350Y-129272424D01*
X193058620Y-129317634D01*
X192730315Y-129429034D01*
X192525921Y-129538286D01*
X192415074Y-129815469D01*
X128521502Y-129815469D01*
X128518071Y-129780640D01*
X128451169Y-129560094D01*
X128352234Y-129375000D01*
X128451169Y-129189906D01*
X128518071Y-128969360D01*
X128540661Y-128740000D01*
X128518071Y-128510640D01*
X128451169Y-128290094D01*
X128350846Y-128102404D01*
X128408377Y-128014421D01*
X128493900Y-127777383D01*
X128368244Y-127597000D01*
X127627560Y-127597000D01*
X127594360Y-127586929D01*
X127422477Y-127570000D01*
X126577523Y-127570000D01*
X126405640Y-127586929D01*
X126372440Y-127597000D01*
X125631756Y-127597000D01*
X125506100Y-127777383D01*
X125591623Y-128014421D01*
X125649154Y-128102404D01*
X125548831Y-128290094D01*
X125481929Y-128510640D01*
X125459339Y-128740000D01*
X120685000Y-128740000D01*
X120685000Y-125665000D01*
X125461928Y-125665000D01*
X125461928Y-126735000D01*
X125474188Y-126859482D01*
X125510498Y-126979180D01*
X125547385Y-127048190D01*
X125506100Y-127162617D01*
X125631756Y-127343000D01*
X125916800Y-127343000D01*
X125975518Y-127360812D01*
X126100000Y-127373072D01*
X127900000Y-127373072D01*
X128024482Y-127360812D01*
X128083200Y-127343000D01*
X128368244Y-127343000D01*
X128493900Y-127162617D01*
X128452615Y-127048190D01*
X128489502Y-126979180D01*
X128525812Y-126859482D01*
X128538072Y-126735000D01*
X128538072Y-125665000D01*
X128530069Y-125583740D01*
X143295000Y-125583740D01*
X143295000Y-125876260D01*
X143352068Y-126163158D01*
X143464010Y-126433411D01*
X143626525Y-126676632D01*
X143833368Y-126883475D01*
X144007760Y-127000000D01*
X143833368Y-127116525D01*
X143626525Y-127323368D01*
X143464010Y-127566589D01*
X143352068Y-127836842D01*
X143295000Y-128123740D01*
X143295000Y-128416260D01*
X143352068Y-128703158D01*
X143464010Y-128973411D01*
X143626525Y-129216632D01*
X143833368Y-129423475D01*
X144076589Y-129585990D01*
X144346842Y-129697932D01*
X144633740Y-129755000D01*
X144926260Y-129755000D01*
X145213158Y-129697932D01*
X145483411Y-129585990D01*
X145726632Y-129423475D01*
X145933475Y-129216632D01*
X146050000Y-129042240D01*
X146166525Y-129216632D01*
X146373368Y-129423475D01*
X146616589Y-129585990D01*
X146886842Y-129697932D01*
X147173740Y-129755000D01*
X147466260Y-129755000D01*
X147753158Y-129697932D01*
X148023411Y-129585990D01*
X148266632Y-129423475D01*
X148473475Y-129216632D01*
X148595195Y-129034466D01*
X148664822Y-129151355D01*
X148859731Y-129367588D01*
X149093080Y-129541641D01*
X149355901Y-129666825D01*
X149503110Y-129711476D01*
X149733000Y-129590155D01*
X149733000Y-128397000D01*
X149713000Y-128397000D01*
X149713000Y-128143000D01*
X149733000Y-128143000D01*
X149733000Y-125857000D01*
X149713000Y-125857000D01*
X149713000Y-125603000D01*
X149733000Y-125603000D01*
X149733000Y-124409845D01*
X149987000Y-124409845D01*
X149987000Y-125603000D01*
X150007000Y-125603000D01*
X150007000Y-125857000D01*
X149987000Y-125857000D01*
X149987000Y-128143000D01*
X150007000Y-128143000D01*
X150007000Y-128397000D01*
X149987000Y-128397000D01*
X149987000Y-129590155D01*
X150216890Y-129711476D01*
X150364099Y-129666825D01*
X150626920Y-129541641D01*
X150860269Y-129367588D01*
X151055178Y-129151355D01*
X151124805Y-129034466D01*
X151246525Y-129216632D01*
X151453368Y-129423475D01*
X151696589Y-129585990D01*
X151966842Y-129697932D01*
X152253740Y-129755000D01*
X152546260Y-129755000D01*
X152833158Y-129697932D01*
X153103411Y-129585990D01*
X153346632Y-129423475D01*
X153553475Y-129216632D01*
X153715990Y-128973411D01*
X153827932Y-128703158D01*
X153885000Y-128416260D01*
X153885000Y-128326655D01*
X194240000Y-128326655D01*
X194240000Y-128673345D01*
X194307636Y-129013373D01*
X194440308Y-129333673D01*
X194632919Y-129621935D01*
X194878065Y-129867081D01*
X195166327Y-130059692D01*
X195486627Y-130192364D01*
X195826655Y-130260000D01*
X196173345Y-130260000D01*
X196513373Y-130192364D01*
X196833673Y-130059692D01*
X197121935Y-129867081D01*
X197367081Y-129621935D01*
X197559692Y-129333673D01*
X197692364Y-129013373D01*
X197760000Y-128673345D01*
X197760000Y-128326655D01*
X197692364Y-127986627D01*
X197559692Y-127666327D01*
X197367081Y-127378065D01*
X197121935Y-127132919D01*
X196833673Y-126940308D01*
X196513373Y-126807636D01*
X196173345Y-126740000D01*
X195826655Y-126740000D01*
X195486627Y-126807636D01*
X195166327Y-126940308D01*
X194878065Y-127132919D01*
X194632919Y-127378065D01*
X194440308Y-127666327D01*
X194307636Y-127986627D01*
X194240000Y-128326655D01*
X153885000Y-128326655D01*
X153885000Y-128123740D01*
X153827932Y-127836842D01*
X153715990Y-127566589D01*
X153553475Y-127323368D01*
X153421620Y-127191513D01*
X153444636Y-127184531D01*
X192415074Y-127184531D01*
X192525921Y-127461714D01*
X192836840Y-127615089D01*
X193171705Y-127704860D01*
X193517650Y-127727576D01*
X193861380Y-127682366D01*
X194189685Y-127570966D01*
X194394079Y-127461714D01*
X194504926Y-127184531D01*
X193460000Y-126139605D01*
X192415074Y-127184531D01*
X153444636Y-127184531D01*
X153494180Y-127169502D01*
X153604494Y-127110537D01*
X153701185Y-127031185D01*
X153780537Y-126934494D01*
X153839502Y-126824180D01*
X153875812Y-126704482D01*
X153888072Y-126580000D01*
X153888072Y-126017650D01*
X191692424Y-126017650D01*
X191737634Y-126361380D01*
X191849034Y-126689685D01*
X191958286Y-126894079D01*
X192235469Y-127004926D01*
X193280395Y-125960000D01*
X193639605Y-125960000D01*
X194684531Y-127004926D01*
X194961714Y-126894079D01*
X195115089Y-126583160D01*
X195204860Y-126248295D01*
X195220004Y-126017650D01*
X196772424Y-126017650D01*
X196817634Y-126361380D01*
X196929034Y-126689685D01*
X197038286Y-126894079D01*
X197315469Y-127004926D01*
X198360395Y-125960000D01*
X197315469Y-124915074D01*
X197038286Y-125025921D01*
X196884911Y-125336840D01*
X196795140Y-125671705D01*
X196772424Y-126017650D01*
X195220004Y-126017650D01*
X195227576Y-125902350D01*
X195182366Y-125558620D01*
X195070966Y-125230315D01*
X194961714Y-125025921D01*
X194684531Y-124915074D01*
X193639605Y-125960000D01*
X193280395Y-125960000D01*
X192235469Y-124915074D01*
X191958286Y-125025921D01*
X191804911Y-125336840D01*
X191715140Y-125671705D01*
X191692424Y-126017650D01*
X153888072Y-126017650D01*
X153888072Y-124880000D01*
X153875812Y-124755518D01*
X153869731Y-124735469D01*
X192415074Y-124735469D01*
X193460000Y-125780395D01*
X194504926Y-124735469D01*
X194394079Y-124458286D01*
X194083160Y-124304911D01*
X193748295Y-124215140D01*
X193402350Y-124192424D01*
X193058620Y-124237634D01*
X192730315Y-124349034D01*
X192525921Y-124458286D01*
X192415074Y-124735469D01*
X153869731Y-124735469D01*
X153839502Y-124635820D01*
X153780537Y-124525506D01*
X153701185Y-124428815D01*
X153604494Y-124349463D01*
X153494180Y-124290498D01*
X153374482Y-124254188D01*
X153250000Y-124241928D01*
X151550000Y-124241928D01*
X151425518Y-124254188D01*
X151305820Y-124290498D01*
X151195506Y-124349463D01*
X151098815Y-124428815D01*
X151019463Y-124525506D01*
X150960498Y-124635820D01*
X150936034Y-124716466D01*
X150860269Y-124632412D01*
X150626920Y-124458359D01*
X150364099Y-124333175D01*
X150216890Y-124288524D01*
X149987000Y-124409845D01*
X149733000Y-124409845D01*
X149503110Y-124288524D01*
X149355901Y-124333175D01*
X149093080Y-124458359D01*
X148859731Y-124632412D01*
X148664822Y-124848645D01*
X148595195Y-124965534D01*
X148473475Y-124783368D01*
X148266632Y-124576525D01*
X148023411Y-124414010D01*
X147753158Y-124302068D01*
X147466260Y-124245000D01*
X147173740Y-124245000D01*
X146886842Y-124302068D01*
X146616589Y-124414010D01*
X146373368Y-124576525D01*
X146166525Y-124783368D01*
X146050000Y-124957760D01*
X145933475Y-124783368D01*
X145726632Y-124576525D01*
X145483411Y-124414010D01*
X145213158Y-124302068D01*
X144926260Y-124245000D01*
X144633740Y-124245000D01*
X144346842Y-124302068D01*
X144076589Y-124414010D01*
X143833368Y-124576525D01*
X143626525Y-124783368D01*
X143464010Y-125026589D01*
X143352068Y-125296842D01*
X143295000Y-125583740D01*
X128530069Y-125583740D01*
X128525812Y-125540518D01*
X128489502Y-125420820D01*
X128430537Y-125310506D01*
X128351185Y-125213815D01*
X128254494Y-125134463D01*
X128144180Y-125075498D01*
X128024482Y-125039188D01*
X127900000Y-125026928D01*
X126100000Y-125026928D01*
X125975518Y-125039188D01*
X125855820Y-125075498D01*
X125745506Y-125134463D01*
X125648815Y-125213815D01*
X125569463Y-125310506D01*
X125510498Y-125420820D01*
X125474188Y-125540518D01*
X125461928Y-125665000D01*
X120685000Y-125665000D01*
X120685000Y-118822873D01*
X120884013Y-118908415D01*
X121103000Y-118955000D01*
X121403000Y-118955000D01*
X121403000Y-117947000D01*
X121657000Y-117947000D01*
X121657000Y-118955000D01*
X121957000Y-118955000D01*
X122175987Y-118908415D01*
X122381678Y-118820003D01*
X122566169Y-118693161D01*
X122722369Y-118532764D01*
X122844276Y-118344976D01*
X122924119Y-118121874D01*
X124065881Y-118121874D01*
X124145724Y-118344976D01*
X124267631Y-118532764D01*
X124423831Y-118693161D01*
X124608322Y-118820003D01*
X124814013Y-118908415D01*
X125033000Y-118955000D01*
X125583000Y-118955000D01*
X125583000Y-117947000D01*
X125837000Y-117947000D01*
X125837000Y-118955000D01*
X126387000Y-118955000D01*
X126605987Y-118908415D01*
X126811678Y-118820003D01*
X126996169Y-118693161D01*
X127088780Y-118598061D01*
X134565000Y-118598061D01*
X134565000Y-118801939D01*
X134604774Y-119001898D01*
X134682795Y-119190256D01*
X134796063Y-119359774D01*
X134940226Y-119503937D01*
X135109744Y-119617205D01*
X135298102Y-119695226D01*
X135498061Y-119735000D01*
X135701939Y-119735000D01*
X135901898Y-119695226D01*
X136090256Y-119617205D01*
X136259774Y-119503937D01*
X136303711Y-119460000D01*
X136696289Y-119460000D01*
X136740226Y-119503937D01*
X136909744Y-119617205D01*
X137098102Y-119695226D01*
X137298061Y-119735000D01*
X137501939Y-119735000D01*
X137701898Y-119695226D01*
X137890256Y-119617205D01*
X138059774Y-119503937D01*
X138203937Y-119359774D01*
X138317205Y-119190256D01*
X138395226Y-119001898D01*
X138435000Y-118801939D01*
X138435000Y-118598061D01*
X138395226Y-118398102D01*
X138317205Y-118209744D01*
X138203937Y-118040226D01*
X138059774Y-117896063D01*
X137890256Y-117782795D01*
X137701898Y-117704774D01*
X137501939Y-117665000D01*
X137298061Y-117665000D01*
X137098102Y-117704774D01*
X136909744Y-117782795D01*
X136740226Y-117896063D01*
X136696289Y-117940000D01*
X136303711Y-117940000D01*
X136259774Y-117896063D01*
X136090256Y-117782795D01*
X135901898Y-117704774D01*
X135701939Y-117665000D01*
X135498061Y-117665000D01*
X135298102Y-117704774D01*
X135109744Y-117782795D01*
X134940226Y-117896063D01*
X134796063Y-118040226D01*
X134682795Y-118209744D01*
X134604774Y-118398102D01*
X134565000Y-118598061D01*
X127088780Y-118598061D01*
X127152369Y-118532764D01*
X127274276Y-118344976D01*
X127354119Y-118121874D01*
X127227954Y-117947000D01*
X125837000Y-117947000D01*
X125583000Y-117947000D01*
X124192046Y-117947000D01*
X124065881Y-118121874D01*
X122924119Y-118121874D01*
X122797954Y-117947000D01*
X121657000Y-117947000D01*
X121403000Y-117947000D01*
X121383000Y-117947000D01*
X121383000Y-117693000D01*
X121403000Y-117693000D01*
X121403000Y-116685000D01*
X121657000Y-116685000D01*
X121657000Y-117693000D01*
X122797954Y-117693000D01*
X122924119Y-117518126D01*
X124065881Y-117518126D01*
X124192046Y-117693000D01*
X125583000Y-117693000D01*
X125583000Y-117673000D01*
X125837000Y-117673000D01*
X125837000Y-117693000D01*
X127227954Y-117693000D01*
X127354119Y-117518126D01*
X127274276Y-117295024D01*
X127152369Y-117107236D01*
X126996169Y-116946839D01*
X126811678Y-116819997D01*
X126605987Y-116731585D01*
X126387000Y-116685000D01*
X126096904Y-116685000D01*
X126103108Y-116670022D01*
X126140000Y-116484552D01*
X126140000Y-116295448D01*
X126103108Y-116109978D01*
X126030741Y-115935269D01*
X125925681Y-115778036D01*
X125791964Y-115644319D01*
X125634731Y-115539259D01*
X125460022Y-115466892D01*
X125274552Y-115430000D01*
X125085448Y-115430000D01*
X124899978Y-115466892D01*
X124725269Y-115539259D01*
X124568036Y-115644319D01*
X124434319Y-115778036D01*
X124329259Y-115935269D01*
X124256892Y-116109978D01*
X124220000Y-116295448D01*
X124220000Y-116484552D01*
X124256892Y-116670022D01*
X124329259Y-116844731D01*
X124408206Y-116962884D01*
X124267631Y-117107236D01*
X124145724Y-117295024D01*
X124065881Y-117518126D01*
X122924119Y-117518126D01*
X122844276Y-117295024D01*
X122722369Y-117107236D01*
X122566169Y-116946839D01*
X122381678Y-116819997D01*
X122175987Y-116731585D01*
X121957000Y-116685000D01*
X121657000Y-116685000D01*
X121403000Y-116685000D01*
X121103000Y-116685000D01*
X120884013Y-116731585D01*
X120685000Y-116817127D01*
X120685000Y-110182873D01*
X120884013Y-110268415D01*
X121103000Y-110315000D01*
X121403000Y-110315000D01*
X121403000Y-109307000D01*
X121657000Y-109307000D01*
X121657000Y-110315000D01*
X121957000Y-110315000D01*
X122175987Y-110268415D01*
X122381678Y-110180003D01*
X122566169Y-110053161D01*
X122722369Y-109892764D01*
X122844276Y-109704976D01*
X122924119Y-109481874D01*
X124065881Y-109481874D01*
X124145724Y-109704976D01*
X124267631Y-109892764D01*
X124408206Y-110037116D01*
X124329259Y-110155269D01*
X124256892Y-110329978D01*
X124220000Y-110515448D01*
X124220000Y-110704552D01*
X124256892Y-110890022D01*
X124329259Y-111064731D01*
X124434319Y-111221964D01*
X124568036Y-111355681D01*
X124725269Y-111460741D01*
X124899978Y-111533108D01*
X125085448Y-111570000D01*
X125274552Y-111570000D01*
X125460022Y-111533108D01*
X125634731Y-111460741D01*
X125791964Y-111355681D01*
X125925681Y-111221964D01*
X126030741Y-111064731D01*
X126054276Y-111007911D01*
X126865000Y-111007911D01*
X126865000Y-111192089D01*
X126900932Y-111372729D01*
X126971414Y-111542889D01*
X127073738Y-111696028D01*
X127203972Y-111826262D01*
X127357111Y-111928586D01*
X127391077Y-111942655D01*
X127455000Y-112006578D01*
X127455001Y-113032250D01*
X127455000Y-113032260D01*
X127455000Y-113193308D01*
X127440932Y-113227271D01*
X127405000Y-113407911D01*
X127405000Y-113592089D01*
X127440932Y-113772729D01*
X127455000Y-113806692D01*
X127455000Y-113967740D01*
X127455001Y-113967750D01*
X127455000Y-114993422D01*
X127391077Y-115057345D01*
X127357111Y-115071414D01*
X127203972Y-115173738D01*
X127073738Y-115303972D01*
X126971414Y-115457111D01*
X126900932Y-115627271D01*
X126865000Y-115807911D01*
X126865000Y-115992089D01*
X126900932Y-116172729D01*
X126971414Y-116342889D01*
X127073738Y-116496028D01*
X127203972Y-116626262D01*
X127357111Y-116728586D01*
X127527271Y-116799068D01*
X127707911Y-116835000D01*
X127892089Y-116835000D01*
X128072729Y-116799068D01*
X128242889Y-116728586D01*
X128396028Y-116626262D01*
X128526262Y-116496028D01*
X128628586Y-116342889D01*
X128642655Y-116308923D01*
X128935045Y-116016533D01*
X128968817Y-115988817D01*
X129079411Y-115854059D01*
X129161589Y-115700313D01*
X129212195Y-115533490D01*
X129225000Y-115403477D01*
X129225000Y-115403467D01*
X129229281Y-115360001D01*
X129225000Y-115316535D01*
X129225000Y-113806692D01*
X129239068Y-113772729D01*
X129275000Y-113592089D01*
X129275000Y-113407911D01*
X129239068Y-113227271D01*
X129225000Y-113193308D01*
X129225000Y-111683465D01*
X129229281Y-111639999D01*
X129225000Y-111596533D01*
X129225000Y-111596523D01*
X129212195Y-111466510D01*
X129161589Y-111299687D01*
X129079411Y-111145941D01*
X128968817Y-111011183D01*
X128935045Y-110983467D01*
X128642655Y-110691077D01*
X128628586Y-110657111D01*
X128526262Y-110503972D01*
X128396028Y-110373738D01*
X128242889Y-110271414D01*
X128072729Y-110200932D01*
X127892089Y-110165000D01*
X127707911Y-110165000D01*
X127527271Y-110200932D01*
X127357111Y-110271414D01*
X127203972Y-110373738D01*
X127073738Y-110503972D01*
X126971414Y-110657111D01*
X126900932Y-110827271D01*
X126865000Y-111007911D01*
X126054276Y-111007911D01*
X126103108Y-110890022D01*
X126140000Y-110704552D01*
X126140000Y-110515448D01*
X126103108Y-110329978D01*
X126096904Y-110315000D01*
X126387000Y-110315000D01*
X126605987Y-110268415D01*
X126811678Y-110180003D01*
X126996169Y-110053161D01*
X127152369Y-109892764D01*
X127274276Y-109704976D01*
X127287540Y-109667911D01*
X176004996Y-109667911D01*
X176004996Y-109852089D01*
X176040928Y-110032729D01*
X176111410Y-110202889D01*
X176213734Y-110356028D01*
X176343968Y-110486262D01*
X176497107Y-110588586D01*
X176667267Y-110659068D01*
X176847907Y-110695000D01*
X177032085Y-110695000D01*
X177212725Y-110659068D01*
X177382885Y-110588586D01*
X177485531Y-110520000D01*
X177684464Y-110520001D01*
X177787111Y-110588587D01*
X177957271Y-110659069D01*
X178137911Y-110695001D01*
X178322089Y-110695001D01*
X178502729Y-110659069D01*
X178672889Y-110588587D01*
X178826028Y-110486263D01*
X178956262Y-110356029D01*
X179058586Y-110202890D01*
X179129068Y-110032730D01*
X179165000Y-109852090D01*
X179165000Y-109667912D01*
X179129068Y-109487272D01*
X179058586Y-109317112D01*
X179023453Y-109264531D01*
X192415074Y-109264531D01*
X192525921Y-109541714D01*
X192836840Y-109695089D01*
X193171705Y-109784860D01*
X193517650Y-109807576D01*
X193861380Y-109762366D01*
X194189685Y-109650966D01*
X194394079Y-109541714D01*
X194504926Y-109264531D01*
X193460000Y-108219605D01*
X192415074Y-109264531D01*
X179023453Y-109264531D01*
X178956262Y-109163973D01*
X178826028Y-109033739D01*
X178672889Y-108931415D01*
X178502729Y-108860933D01*
X178322089Y-108825001D01*
X178137911Y-108825001D01*
X177957271Y-108860933D01*
X177787111Y-108931415D01*
X177684464Y-109000002D01*
X177485533Y-109000001D01*
X177382885Y-108931414D01*
X177212725Y-108860932D01*
X177032085Y-108825000D01*
X176847907Y-108825000D01*
X176667267Y-108860932D01*
X176497107Y-108931414D01*
X176343968Y-109033738D01*
X176213734Y-109163972D01*
X176111410Y-109317111D01*
X176040928Y-109487271D01*
X176004996Y-109667911D01*
X127287540Y-109667911D01*
X127354119Y-109481874D01*
X127227954Y-109307000D01*
X125837000Y-109307000D01*
X125837000Y-109327000D01*
X125583000Y-109327000D01*
X125583000Y-109307000D01*
X124192046Y-109307000D01*
X124065881Y-109481874D01*
X122924119Y-109481874D01*
X122797954Y-109307000D01*
X121657000Y-109307000D01*
X121403000Y-109307000D01*
X121383000Y-109307000D01*
X121383000Y-109053000D01*
X121403000Y-109053000D01*
X121403000Y-108045000D01*
X121657000Y-108045000D01*
X121657000Y-109053000D01*
X122797954Y-109053000D01*
X122924119Y-108878126D01*
X124065881Y-108878126D01*
X124192046Y-109053000D01*
X125583000Y-109053000D01*
X125583000Y-108045000D01*
X125837000Y-108045000D01*
X125837000Y-109053000D01*
X127227954Y-109053000D01*
X127354119Y-108878126D01*
X127274276Y-108655024D01*
X127152369Y-108467236D01*
X126996169Y-108306839D01*
X126811678Y-108179997D01*
X126620098Y-108097650D01*
X191692424Y-108097650D01*
X191737634Y-108441380D01*
X191849034Y-108769685D01*
X191958286Y-108974079D01*
X192235469Y-109084926D01*
X193280395Y-108040000D01*
X193639605Y-108040000D01*
X194684531Y-109084926D01*
X194961714Y-108974079D01*
X195115089Y-108663160D01*
X195204860Y-108328295D01*
X195220004Y-108097650D01*
X196772424Y-108097650D01*
X196817634Y-108441380D01*
X196929034Y-108769685D01*
X197038286Y-108974079D01*
X197315469Y-109084926D01*
X198360395Y-108040000D01*
X197315469Y-106995074D01*
X197038286Y-107105921D01*
X196884911Y-107416840D01*
X196795140Y-107751705D01*
X196772424Y-108097650D01*
X195220004Y-108097650D01*
X195227576Y-107982350D01*
X195182366Y-107638620D01*
X195070966Y-107310315D01*
X194961714Y-107105921D01*
X194684531Y-106995074D01*
X193639605Y-108040000D01*
X193280395Y-108040000D01*
X192235469Y-106995074D01*
X191958286Y-107105921D01*
X191804911Y-107416840D01*
X191715140Y-107751705D01*
X191692424Y-108097650D01*
X126620098Y-108097650D01*
X126605987Y-108091585D01*
X126387000Y-108045000D01*
X125837000Y-108045000D01*
X125583000Y-108045000D01*
X125033000Y-108045000D01*
X124814013Y-108091585D01*
X124608322Y-108179997D01*
X124423831Y-108306839D01*
X124267631Y-108467236D01*
X124145724Y-108655024D01*
X124065881Y-108878126D01*
X122924119Y-108878126D01*
X122844276Y-108655024D01*
X122722369Y-108467236D01*
X122566169Y-108306839D01*
X122381678Y-108179997D01*
X122175987Y-108091585D01*
X121957000Y-108045000D01*
X121657000Y-108045000D01*
X121403000Y-108045000D01*
X121103000Y-108045000D01*
X120884013Y-108091585D01*
X120685000Y-108177127D01*
X120685000Y-106815469D01*
X192415074Y-106815469D01*
X193460000Y-107860395D01*
X194504926Y-106815469D01*
X194394079Y-106538286D01*
X194083160Y-106384911D01*
X193748295Y-106295140D01*
X193402350Y-106272424D01*
X193058620Y-106317634D01*
X192730315Y-106429034D01*
X192525921Y-106538286D01*
X192415074Y-106815469D01*
X120685000Y-106815469D01*
X120685000Y-105326655D01*
X194240000Y-105326655D01*
X194240000Y-105673345D01*
X194307636Y-106013373D01*
X194440308Y-106333673D01*
X194632919Y-106621935D01*
X194878065Y-106867081D01*
X195166327Y-107059692D01*
X195486627Y-107192364D01*
X195826655Y-107260000D01*
X196173345Y-107260000D01*
X196513373Y-107192364D01*
X196833673Y-107059692D01*
X197121935Y-106867081D01*
X197367081Y-106621935D01*
X197559692Y-106333673D01*
X197692364Y-106013373D01*
X197760000Y-105673345D01*
X197760000Y-105326655D01*
X197692364Y-104986627D01*
X197559692Y-104666327D01*
X197367081Y-104378065D01*
X197121935Y-104132919D01*
X196833673Y-103940308D01*
X196513373Y-103807636D01*
X196173345Y-103740000D01*
X195826655Y-103740000D01*
X195486627Y-103807636D01*
X195166327Y-103940308D01*
X194878065Y-104132919D01*
X194632919Y-104378065D01*
X194440308Y-104666327D01*
X194307636Y-104986627D01*
X194240000Y-105326655D01*
X120685000Y-105326655D01*
X120685000Y-104184531D01*
X192415074Y-104184531D01*
X192525921Y-104461714D01*
X192836840Y-104615089D01*
X193171705Y-104704860D01*
X193517650Y-104727576D01*
X193861380Y-104682366D01*
X194189685Y-104570966D01*
X194394079Y-104461714D01*
X194504926Y-104184531D01*
X193460000Y-103139605D01*
X192415074Y-104184531D01*
X120685000Y-104184531D01*
X120685000Y-103017650D01*
X191692424Y-103017650D01*
X191737634Y-103361380D01*
X191849034Y-103689685D01*
X191958286Y-103894079D01*
X192235469Y-104004926D01*
X193280395Y-102960000D01*
X193639605Y-102960000D01*
X194684531Y-104004926D01*
X194961714Y-103894079D01*
X195115089Y-103583160D01*
X195204860Y-103248295D01*
X195220004Y-103017650D01*
X196772424Y-103017650D01*
X196817634Y-103361380D01*
X196929034Y-103689685D01*
X197038286Y-103894079D01*
X197315469Y-104004926D01*
X198360395Y-102960000D01*
X197315469Y-101915074D01*
X197038286Y-102025921D01*
X196884911Y-102336840D01*
X196795140Y-102671705D01*
X196772424Y-103017650D01*
X195220004Y-103017650D01*
X195227576Y-102902350D01*
X195182366Y-102558620D01*
X195070966Y-102230315D01*
X194961714Y-102025921D01*
X194684531Y-101915074D01*
X193639605Y-102960000D01*
X193280395Y-102960000D01*
X192235469Y-101915074D01*
X191958286Y-102025921D01*
X191804911Y-102336840D01*
X191715140Y-102671705D01*
X191692424Y-103017650D01*
X120685000Y-103017650D01*
X120685000Y-99540000D01*
X125459339Y-99540000D01*
X125481929Y-99769360D01*
X125548831Y-99989906D01*
X125647766Y-100175000D01*
X125548831Y-100360094D01*
X125481929Y-100580640D01*
X125459339Y-100810000D01*
X125481929Y-101039360D01*
X125548831Y-101259906D01*
X125657474Y-101463162D01*
X125803682Y-101641318D01*
X125981838Y-101787526D01*
X126185094Y-101896169D01*
X126405640Y-101963071D01*
X126577523Y-101980000D01*
X127422477Y-101980000D01*
X127594360Y-101963071D01*
X127814906Y-101896169D01*
X128018162Y-101787526D01*
X128081594Y-101735469D01*
X192415074Y-101735469D01*
X193460000Y-102780395D01*
X194504926Y-101735469D01*
X194394079Y-101458286D01*
X194083160Y-101304911D01*
X193748295Y-101215140D01*
X193402350Y-101192424D01*
X193058620Y-101237634D01*
X192730315Y-101349034D01*
X192525921Y-101458286D01*
X192415074Y-101735469D01*
X128081594Y-101735469D01*
X128196318Y-101641318D01*
X128342526Y-101463162D01*
X128451169Y-101259906D01*
X128518071Y-101039360D01*
X128540661Y-100810000D01*
X128518071Y-100580640D01*
X128451169Y-100360094D01*
X128352234Y-100175000D01*
X128451169Y-99989906D01*
X128518071Y-99769360D01*
X128540661Y-99540000D01*
X128518071Y-99310640D01*
X128451169Y-99090094D01*
X128350846Y-98902404D01*
X128408377Y-98814421D01*
X128493900Y-98577383D01*
X128368244Y-98397000D01*
X127627560Y-98397000D01*
X127594360Y-98386929D01*
X127422477Y-98370000D01*
X126577523Y-98370000D01*
X126405640Y-98386929D01*
X126372440Y-98397000D01*
X125631756Y-98397000D01*
X125506100Y-98577383D01*
X125591623Y-98814421D01*
X125649154Y-98902404D01*
X125548831Y-99090094D01*
X125481929Y-99310640D01*
X125459339Y-99540000D01*
X120685000Y-99540000D01*
X120685000Y-96465000D01*
X125461928Y-96465000D01*
X125461928Y-97535000D01*
X125474188Y-97659482D01*
X125510498Y-97779180D01*
X125547385Y-97848190D01*
X125506100Y-97962617D01*
X125631756Y-98143000D01*
X125916800Y-98143000D01*
X125975518Y-98160812D01*
X126100000Y-98173072D01*
X127900000Y-98173072D01*
X128024482Y-98160812D01*
X128083200Y-98143000D01*
X128368244Y-98143000D01*
X128493900Y-97962617D01*
X128452615Y-97848190D01*
X128489502Y-97779180D01*
X128525812Y-97659482D01*
X128538072Y-97535000D01*
X128538072Y-96465000D01*
X128525812Y-96340518D01*
X128489502Y-96220820D01*
X128430537Y-96110506D01*
X128351185Y-96013815D01*
X128254494Y-95934463D01*
X128144180Y-95875498D01*
X128024482Y-95839188D01*
X127900000Y-95826928D01*
X126100000Y-95826928D01*
X125975518Y-95839188D01*
X125855820Y-95875498D01*
X125745506Y-95934463D01*
X125648815Y-96013815D01*
X125569463Y-96110506D01*
X125510498Y-96220820D01*
X125474188Y-96340518D01*
X125461928Y-96465000D01*
X120685000Y-96465000D01*
X120685000Y-90685000D01*
X199315000Y-90685000D01*
X199315000Y-101379813D01*
G37*
G04 #@! TD.AperFunction*
M02*
