G04 #@! TF.GenerationSoftware,KiCad,Pcbnew,5.1.8-db9833491~87~ubuntu20.04.1*
G04 #@! TF.CreationDate,2020-11-19T11:44:44+01:00*
G04 #@! TF.ProjectId,daisy,64616973-792e-46b6-9963-61645f706362,v1.0*
G04 #@! TF.SameCoordinates,Original*
G04 #@! TF.FileFunction,Legend,Top*
G04 #@! TF.FilePolarity,Positive*
%FSLAX46Y46*%
G04 Gerber Fmt 4.6, Leading zero omitted, Abs format (unit mm)*
G04 Created by KiCad (PCBNEW 5.1.8-db9833491~87~ubuntu20.04.1) date 2020-11-19 11:44:44*
%MOMM*%
%LPD*%
G01*
G04 APERTURE LIST*
%ADD10C,0.300000*%
%ADD11C,0.120000*%
%ADD12C,0.150000*%
G04 APERTURE END LIST*
D10*
X152138571Y-123592857D02*
X153138571Y-123235714D01*
X152138571Y-122878571D01*
X153067142Y-121664285D02*
X153138571Y-121807142D01*
X153138571Y-122092857D01*
X153067142Y-122235714D01*
X152995714Y-122307142D01*
X152852857Y-122378571D01*
X152424285Y-122378571D01*
X152281428Y-122307142D01*
X152210000Y-122235714D01*
X152138571Y-122092857D01*
X152138571Y-121807142D01*
X152210000Y-121664285D01*
X153067142Y-120378571D02*
X153138571Y-120521428D01*
X153138571Y-120807142D01*
X153067142Y-120950000D01*
X152995714Y-121021428D01*
X152852857Y-121092857D01*
X152424285Y-121092857D01*
X152281428Y-121021428D01*
X152210000Y-120950000D01*
X152138571Y-120807142D01*
X152138571Y-120521428D01*
X152210000Y-120378571D01*
X152078571Y-133692857D02*
X153078571Y-133335714D01*
X152078571Y-132978571D01*
X153007142Y-131764285D02*
X153078571Y-131907142D01*
X153078571Y-132192857D01*
X153007142Y-132335714D01*
X152935714Y-132407142D01*
X152792857Y-132478571D01*
X152364285Y-132478571D01*
X152221428Y-132407142D01*
X152150000Y-132335714D01*
X152078571Y-132192857D01*
X152078571Y-131907142D01*
X152150000Y-131764285D01*
X153007142Y-130478571D02*
X153078571Y-130621428D01*
X153078571Y-130907142D01*
X153007142Y-131050000D01*
X152935714Y-131121428D01*
X152792857Y-131192857D01*
X152364285Y-131192857D01*
X152221428Y-131121428D01*
X152150000Y-131050000D01*
X152078571Y-130907142D01*
X152078571Y-130621428D01*
X152150000Y-130478571D01*
X142419047Y-95404761D02*
X142419047Y-93404761D01*
X142895238Y-93404761D01*
X143180952Y-93500000D01*
X143371428Y-93690476D01*
X143466666Y-93880952D01*
X143561904Y-94261904D01*
X143561904Y-94547619D01*
X143466666Y-94928571D01*
X143371428Y-95119047D01*
X143180952Y-95309523D01*
X142895238Y-95404761D01*
X142419047Y-95404761D01*
X145276190Y-95404761D02*
X145276190Y-94357142D01*
X145180952Y-94166666D01*
X144990476Y-94071428D01*
X144609523Y-94071428D01*
X144419047Y-94166666D01*
X145276190Y-95309523D02*
X145085714Y-95404761D01*
X144609523Y-95404761D01*
X144419047Y-95309523D01*
X144323809Y-95119047D01*
X144323809Y-94928571D01*
X144419047Y-94738095D01*
X144609523Y-94642857D01*
X145085714Y-94642857D01*
X145276190Y-94547619D01*
X146228571Y-95404761D02*
X146228571Y-94071428D01*
X146228571Y-93404761D02*
X146133333Y-93500000D01*
X146228571Y-93595238D01*
X146323809Y-93500000D01*
X146228571Y-93404761D01*
X146228571Y-93595238D01*
X147085714Y-95309523D02*
X147276190Y-95404761D01*
X147657142Y-95404761D01*
X147847619Y-95309523D01*
X147942857Y-95119047D01*
X147942857Y-95023809D01*
X147847619Y-94833333D01*
X147657142Y-94738095D01*
X147371428Y-94738095D01*
X147180952Y-94642857D01*
X147085714Y-94452380D01*
X147085714Y-94357142D01*
X147180952Y-94166666D01*
X147371428Y-94071428D01*
X147657142Y-94071428D01*
X147847619Y-94166666D01*
X148609523Y-94071428D02*
X149085714Y-95404761D01*
X149561904Y-94071428D02*
X149085714Y-95404761D01*
X148895238Y-95880952D01*
X148800000Y-95976190D01*
X148609523Y-96071428D01*
X151657142Y-94071428D02*
X152133333Y-95404761D01*
X152609523Y-94071428D01*
X154419047Y-95404761D02*
X153276190Y-95404761D01*
X153847619Y-95404761D02*
X153847619Y-93404761D01*
X153657142Y-93690476D01*
X153466666Y-93880952D01*
X153276190Y-93976190D01*
X155276190Y-95214285D02*
X155371428Y-95309523D01*
X155276190Y-95404761D01*
X155180952Y-95309523D01*
X155276190Y-95214285D01*
X155276190Y-95404761D01*
X156609523Y-93404761D02*
X156800000Y-93404761D01*
X156990476Y-93500000D01*
X157085714Y-93595238D01*
X157180952Y-93785714D01*
X157276190Y-94166666D01*
X157276190Y-94642857D01*
X157180952Y-95023809D01*
X157085714Y-95214285D01*
X156990476Y-95309523D01*
X156800000Y-95404761D01*
X156609523Y-95404761D01*
X156419047Y-95309523D01*
X156323809Y-95214285D01*
X156228571Y-95023809D01*
X156133333Y-94642857D01*
X156133333Y-94166666D01*
X156228571Y-93785714D01*
X156323809Y-93595238D01*
X156419047Y-93500000D01*
X156609523Y-93404761D01*
X141133333Y-97371428D02*
X141514285Y-98704761D01*
X141895238Y-97752380D01*
X142276190Y-98704761D01*
X142657142Y-97371428D01*
X143228571Y-97371428D02*
X143609523Y-98704761D01*
X143990476Y-97752380D01*
X144371428Y-98704761D01*
X144752380Y-97371428D01*
X145323809Y-97371428D02*
X145704761Y-98704761D01*
X146085714Y-97752380D01*
X146466666Y-98704761D01*
X146847619Y-97371428D01*
X147609523Y-98514285D02*
X147704761Y-98609523D01*
X147609523Y-98704761D01*
X147514285Y-98609523D01*
X147609523Y-98514285D01*
X147609523Y-98704761D01*
X148466666Y-96895238D02*
X148561904Y-96800000D01*
X148752380Y-96704761D01*
X149228571Y-96704761D01*
X149419047Y-96800000D01*
X149514285Y-96895238D01*
X149609523Y-97085714D01*
X149609523Y-97276190D01*
X149514285Y-97561904D01*
X148371428Y-98704761D01*
X149609523Y-98704761D01*
X150466666Y-97942857D02*
X151990476Y-97942857D01*
X153323809Y-96704761D02*
X153514285Y-96704761D01*
X153704761Y-96800000D01*
X153800000Y-96895238D01*
X153895238Y-97085714D01*
X153990476Y-97466666D01*
X153990476Y-97942857D01*
X153895238Y-98323809D01*
X153800000Y-98514285D01*
X153704761Y-98609523D01*
X153514285Y-98704761D01*
X153323809Y-98704761D01*
X153133333Y-98609523D01*
X153038095Y-98514285D01*
X152942857Y-98323809D01*
X152847619Y-97942857D01*
X152847619Y-97466666D01*
X152942857Y-97085714D01*
X153038095Y-96895238D01*
X153133333Y-96800000D01*
X153323809Y-96704761D01*
X154847619Y-98514285D02*
X154942857Y-98609523D01*
X154847619Y-98704761D01*
X154752380Y-98609523D01*
X154847619Y-98514285D01*
X154847619Y-98704761D01*
X156657142Y-98704761D02*
X156657142Y-96704761D01*
X156657142Y-98609523D02*
X156466666Y-98704761D01*
X156085714Y-98704761D01*
X155895238Y-98609523D01*
X155800000Y-98514285D01*
X155704761Y-98323809D01*
X155704761Y-97752380D01*
X155800000Y-97561904D01*
X155895238Y-97466666D01*
X156085714Y-97371428D01*
X156466666Y-97371428D01*
X156657142Y-97466666D01*
X157609523Y-98704761D02*
X157609523Y-96704761D01*
X157800000Y-97942857D02*
X158371428Y-98704761D01*
X158371428Y-97371428D02*
X157609523Y-98133333D01*
X145387142Y-135970000D02*
X145458571Y-135827142D01*
X145458571Y-135541428D01*
X145387142Y-135398571D01*
X145244285Y-135327142D01*
X145172857Y-135327142D01*
X145030000Y-135398571D01*
X144958571Y-135541428D01*
X144958571Y-135755714D01*
X144887142Y-135898571D01*
X144744285Y-135970000D01*
X144672857Y-135970000D01*
X144530000Y-135898571D01*
X144458571Y-135755714D01*
X144458571Y-135541428D01*
X144530000Y-135398571D01*
X144458571Y-134827142D02*
X145458571Y-134541428D01*
X144744285Y-134255714D01*
X145458571Y-133970000D01*
X144458571Y-133684285D01*
X145387142Y-132470000D02*
X145458571Y-132612857D01*
X145458571Y-132898571D01*
X145387142Y-133041428D01*
X145315714Y-133112857D01*
X145172857Y-133184285D01*
X144744285Y-133184285D01*
X144601428Y-133112857D01*
X144530000Y-133041428D01*
X144458571Y-132898571D01*
X144458571Y-132612857D01*
X144530000Y-132470000D01*
X145458571Y-131612857D02*
X145387142Y-131755714D01*
X145244285Y-131827142D01*
X143958571Y-131827142D01*
X145458571Y-131041428D02*
X143958571Y-131041428D01*
X144887142Y-130898571D02*
X145458571Y-130470000D01*
X144458571Y-130470000D02*
X145030000Y-131041428D01*
X147937142Y-136101428D02*
X148008571Y-135958571D01*
X148008571Y-135672857D01*
X147937142Y-135530000D01*
X147794285Y-135458571D01*
X147722857Y-135458571D01*
X147580000Y-135530000D01*
X147508571Y-135672857D01*
X147508571Y-135887142D01*
X147437142Y-136030000D01*
X147294285Y-136101428D01*
X147222857Y-136101428D01*
X147080000Y-136030000D01*
X147008571Y-135887142D01*
X147008571Y-135672857D01*
X147080000Y-135530000D01*
X147008571Y-134958571D02*
X148008571Y-134672857D01*
X147294285Y-134387142D01*
X148008571Y-134101428D01*
X147008571Y-133815714D01*
X148008571Y-132601428D02*
X146508571Y-132601428D01*
X147937142Y-132601428D02*
X148008571Y-132744285D01*
X148008571Y-133030000D01*
X147937142Y-133172857D01*
X147865714Y-133244285D01*
X147722857Y-133315714D01*
X147294285Y-133315714D01*
X147151428Y-133244285D01*
X147080000Y-133172857D01*
X147008571Y-133030000D01*
X147008571Y-132744285D01*
X147080000Y-132601428D01*
X148008571Y-131887142D02*
X147008571Y-131887142D01*
X146508571Y-131887142D02*
X146580000Y-131958571D01*
X146651428Y-131887142D01*
X146580000Y-131815714D01*
X146508571Y-131887142D01*
X146651428Y-131887142D01*
X148008571Y-130958571D02*
X147937142Y-131101428D01*
X147865714Y-131172857D01*
X147722857Y-131244285D01*
X147294285Y-131244285D01*
X147151428Y-131172857D01*
X147080000Y-131101428D01*
X147008571Y-130958571D01*
X147008571Y-130744285D01*
X147080000Y-130601428D01*
X147151428Y-130530000D01*
X147294285Y-130458571D01*
X147722857Y-130458571D01*
X147865714Y-130530000D01*
X147937142Y-130601428D01*
X148008571Y-130744285D01*
X148008571Y-130958571D01*
X149538571Y-122905714D02*
X150752857Y-122905714D01*
X150895714Y-122977142D01*
X150967142Y-123048571D01*
X151038571Y-123191428D01*
X151038571Y-123405714D01*
X150967142Y-123548571D01*
X150467142Y-122905714D02*
X150538571Y-123048571D01*
X150538571Y-123334285D01*
X150467142Y-123477142D01*
X150395714Y-123548571D01*
X150252857Y-123620000D01*
X149824285Y-123620000D01*
X149681428Y-123548571D01*
X149610000Y-123477142D01*
X149538571Y-123334285D01*
X149538571Y-123048571D01*
X149610000Y-122905714D01*
X149538571Y-122191428D02*
X150538571Y-122191428D01*
X149681428Y-122191428D02*
X149610000Y-122120000D01*
X149538571Y-121977142D01*
X149538571Y-121762857D01*
X149610000Y-121620000D01*
X149752857Y-121548571D01*
X150538571Y-121548571D01*
X150538571Y-120191428D02*
X149038571Y-120191428D01*
X150467142Y-120191428D02*
X150538571Y-120334285D01*
X150538571Y-120620000D01*
X150467142Y-120762857D01*
X150395714Y-120834285D01*
X150252857Y-120905714D01*
X149824285Y-120905714D01*
X149681428Y-120834285D01*
X149610000Y-120762857D01*
X149538571Y-120620000D01*
X149538571Y-120334285D01*
X149610000Y-120191428D01*
X149528571Y-133215714D02*
X150742857Y-133215714D01*
X150885714Y-133287142D01*
X150957142Y-133358571D01*
X151028571Y-133501428D01*
X151028571Y-133715714D01*
X150957142Y-133858571D01*
X150457142Y-133215714D02*
X150528571Y-133358571D01*
X150528571Y-133644285D01*
X150457142Y-133787142D01*
X150385714Y-133858571D01*
X150242857Y-133930000D01*
X149814285Y-133930000D01*
X149671428Y-133858571D01*
X149600000Y-133787142D01*
X149528571Y-133644285D01*
X149528571Y-133358571D01*
X149600000Y-133215714D01*
X149528571Y-132501428D02*
X150528571Y-132501428D01*
X149671428Y-132501428D02*
X149600000Y-132430000D01*
X149528571Y-132287142D01*
X149528571Y-132072857D01*
X149600000Y-131930000D01*
X149742857Y-131858571D01*
X150528571Y-131858571D01*
X150528571Y-130501428D02*
X149028571Y-130501428D01*
X150457142Y-130501428D02*
X150528571Y-130644285D01*
X150528571Y-130930000D01*
X150457142Y-131072857D01*
X150385714Y-131144285D01*
X150242857Y-131215714D01*
X149814285Y-131215714D01*
X149671428Y-131144285D01*
X149600000Y-131072857D01*
X149528571Y-130930000D01*
X149528571Y-130644285D01*
X149600000Y-130501428D01*
X147008571Y-123642857D02*
X147008571Y-123071428D01*
X146508571Y-123428571D02*
X147794285Y-123428571D01*
X147937142Y-123357142D01*
X148008571Y-123214285D01*
X148008571Y-123071428D01*
X148008571Y-122714285D02*
X147008571Y-121928571D01*
X147008571Y-122714285D02*
X148008571Y-121928571D01*
X145438571Y-123594285D02*
X144438571Y-123594285D01*
X144724285Y-123594285D02*
X144581428Y-123522857D01*
X144510000Y-123451428D01*
X144438571Y-123308571D01*
X144438571Y-123165714D01*
X145438571Y-122808571D02*
X144438571Y-122022857D01*
X144438571Y-122808571D02*
X145438571Y-122022857D01*
D11*
X199680000Y-126700000D02*
X199680000Y-130300000D01*
X192800000Y-127200000D02*
X192800000Y-129800000D01*
X197600000Y-132100000D02*
X194400000Y-132100000D01*
X197600000Y-124900000D02*
X194400000Y-124900000D01*
X199680000Y-103700000D02*
X199680000Y-107300000D01*
X192800000Y-104200000D02*
X192800000Y-106800000D01*
X197600000Y-109100000D02*
X194400000Y-109100000D01*
X197600000Y-101900000D02*
X194400000Y-101900000D01*
X118680000Y-108800000D02*
X118680000Y-118200000D01*
X124480000Y-118200000D02*
X122480000Y-118200000D01*
X120580000Y-118200000D02*
X118680000Y-118200000D01*
X124480000Y-108800000D02*
X122480000Y-108800000D01*
X120580000Y-108800000D02*
X118680000Y-108800000D01*
X144560000Y-109940000D02*
X144140000Y-109940000D01*
X144560000Y-117060000D02*
X144560000Y-116640000D01*
X144560000Y-116640000D02*
X145940000Y-116640000D01*
X137440000Y-117060000D02*
X137860000Y-117060000D01*
X137440000Y-109940000D02*
X137860000Y-109940000D01*
X144560000Y-117060000D02*
X144140000Y-117060000D01*
X144560000Y-109940000D02*
X144560000Y-110360000D01*
X137440000Y-109940000D02*
X137440000Y-110360000D01*
X137440000Y-117060000D02*
X137440000Y-116640000D01*
X130212779Y-110390000D02*
X129887221Y-110390000D01*
X130212779Y-111410000D02*
X129887221Y-111410000D01*
X129310000Y-123540000D02*
X129310000Y-119330000D01*
X129310000Y-119330000D02*
X126290000Y-119330000D01*
X126290000Y-119330000D02*
X126290000Y-123540000D01*
X133490000Y-119327500D02*
X133490000Y-123537500D01*
X136510000Y-119327500D02*
X133490000Y-119327500D01*
X136510000Y-123537500D02*
X136510000Y-119327500D01*
X135882779Y-117920000D02*
X135557221Y-117920000D01*
X135882779Y-116900000D02*
X135557221Y-116900000D01*
X144400000Y-118607221D02*
X144400000Y-118932779D01*
X145420000Y-118607221D02*
X145420000Y-118932779D01*
X136570000Y-108382779D02*
X136570000Y-108057221D01*
X137590000Y-108382779D02*
X137590000Y-108057221D01*
X148007221Y-112750000D02*
X148332779Y-112750000D01*
X148007221Y-111730000D02*
X148332779Y-111730000D01*
X148007221Y-114260000D02*
X148332779Y-114260000D01*
X148007221Y-113240000D02*
X148332779Y-113240000D01*
X130212779Y-116610000D02*
X129887221Y-116610000D01*
X130212779Y-115590000D02*
X129887221Y-115590000D01*
X141240000Y-120117221D02*
X141240000Y-120442779D01*
X142260000Y-120117221D02*
X142260000Y-120442779D01*
X122620000Y-103882779D02*
X122620000Y-103557221D01*
X121600000Y-103882779D02*
X121600000Y-103557221D01*
X123100000Y-103882779D02*
X123100000Y-103557221D01*
X124120000Y-103882779D02*
X124120000Y-103557221D01*
X125620000Y-103882779D02*
X125620000Y-103557221D01*
X124600000Y-103882779D02*
X124600000Y-103557221D01*
X125550000Y-123047221D02*
X125550000Y-123372779D01*
X124530000Y-123047221D02*
X124530000Y-123372779D01*
X132300000Y-119590000D02*
X129850000Y-119590000D01*
X130500000Y-122810000D02*
X132300000Y-122810000D01*
X129600000Y-115110000D02*
X132050000Y-115110000D01*
X131400000Y-111890000D02*
X129600000Y-111890000D01*
X128545000Y-96345000D02*
X128080000Y-96345000D01*
X125920000Y-96345000D02*
X125455000Y-96345000D01*
X125919571Y-101159479D02*
G75*
G02*
X125920000Y-96650316I1080429J2254479D01*
G01*
X128080429Y-101159479D02*
G75*
G03*
X128080000Y-96650316I-1080429J2254479D01*
G01*
X125919173Y-101692815D02*
G75*
G02*
X125455170Y-96345000I1080827J2787815D01*
G01*
X128080827Y-101692815D02*
G75*
G03*
X128544830Y-96345000I-1080827J2787815D01*
G01*
X125920000Y-125545000D02*
X125455000Y-125545000D01*
X128545000Y-125545000D02*
X128080000Y-125545000D01*
X128080827Y-130892815D02*
G75*
G03*
X128544830Y-125545000I-1080827J2787815D01*
G01*
X125919173Y-130892815D02*
G75*
G02*
X125455170Y-125545000I1080827J2787815D01*
G01*
X128080429Y-130359479D02*
G75*
G03*
X128080000Y-125850316I-1080429J2254479D01*
G01*
X125919571Y-130359479D02*
G75*
G02*
X125920000Y-125850316I1080429J2254479D01*
G01*
X123020000Y-123047221D02*
X123020000Y-123372779D01*
X124040000Y-123047221D02*
X124040000Y-123372779D01*
X122550000Y-123047221D02*
X122550000Y-123372779D01*
X121530000Y-123047221D02*
X121530000Y-123372779D01*
X175741422Y-94210000D02*
X176258578Y-94210000D01*
X175741422Y-92790000D02*
X176258578Y-92790000D01*
X175741422Y-115790000D02*
X176258578Y-115790000D01*
X175741422Y-117210000D02*
X176258578Y-117210000D01*
X153730000Y-124400000D02*
X153730000Y-125730000D01*
X152400000Y-124400000D02*
X153730000Y-124400000D01*
X153730000Y-127000000D02*
X153730000Y-129600000D01*
X151130000Y-127000000D02*
X153730000Y-127000000D01*
X151130000Y-124400000D02*
X151130000Y-127000000D01*
X153730000Y-129600000D02*
X143450000Y-129600000D01*
X151130000Y-124400000D02*
X143450000Y-124400000D01*
X143450000Y-124400000D02*
X143450000Y-129600000D01*
D12*
X170100000Y-94650000D02*
X190800000Y-94650000D01*
X190800000Y-94650000D02*
X190800000Y-109350000D01*
X190800000Y-109350000D02*
X170100000Y-109350000D01*
X170100000Y-109350000D02*
X170100000Y-94650000D01*
X171500000Y-107000000D02*
X171500000Y-97000000D01*
X171500000Y-97000000D02*
X190250000Y-97000000D01*
X190250000Y-97000000D02*
X190250000Y-103000000D01*
X190250000Y-103000000D02*
X185550000Y-103000000D01*
X185550000Y-103000000D02*
X185550000Y-107000000D01*
X185550000Y-107000000D02*
X171500000Y-107000000D01*
X189664214Y-105450000D02*
G75*
G03*
X189664214Y-105450000I-1414214J0D01*
G01*
X189664214Y-128450000D02*
G75*
G03*
X189664214Y-128450000I-1414214J0D01*
G01*
X185550000Y-130000000D02*
X171500000Y-130000000D01*
X185550000Y-126000000D02*
X185550000Y-130000000D01*
X190250000Y-126000000D02*
X185550000Y-126000000D01*
X190250000Y-120000000D02*
X190250000Y-126000000D01*
X171500000Y-120000000D02*
X190250000Y-120000000D01*
X171500000Y-130000000D02*
X171500000Y-120000000D01*
X170100000Y-132350000D02*
X170100000Y-117650000D01*
X190800000Y-132350000D02*
X170100000Y-132350000D01*
X190800000Y-117650000D02*
X190800000Y-132350000D01*
X170100000Y-117650000D02*
X190800000Y-117650000D01*
X194380952Y-123766666D02*
X194857142Y-123766666D01*
X194285714Y-124052380D02*
X194619047Y-123052380D01*
X194952380Y-124052380D01*
X195285714Y-124052380D02*
X195285714Y-123052380D01*
X195857142Y-124052380D01*
X195857142Y-123052380D01*
X196190476Y-123052380D02*
X196761904Y-123052380D01*
X196476190Y-124052380D02*
X196476190Y-123052380D01*
X197047619Y-123147619D02*
X197095238Y-123100000D01*
X197190476Y-123052380D01*
X197428571Y-123052380D01*
X197523809Y-123100000D01*
X197571428Y-123147619D01*
X197619047Y-123242857D01*
X197619047Y-123338095D01*
X197571428Y-123480952D01*
X197000000Y-124052380D01*
X197619047Y-124052380D01*
X194380952Y-100766666D02*
X194857142Y-100766666D01*
X194285714Y-101052380D02*
X194619047Y-100052380D01*
X194952380Y-101052380D01*
X195285714Y-101052380D02*
X195285714Y-100052380D01*
X195857142Y-101052380D01*
X195857142Y-100052380D01*
X196190476Y-100052380D02*
X196761904Y-100052380D01*
X196476190Y-101052380D02*
X196476190Y-100052380D01*
X197619047Y-101052380D02*
X197047619Y-101052380D01*
X197333333Y-101052380D02*
X197333333Y-100052380D01*
X197238095Y-100195238D01*
X197142857Y-100290476D01*
X197047619Y-100338095D01*
X127677380Y-113833333D02*
X128391666Y-113833333D01*
X128534523Y-113880952D01*
X128629761Y-113976190D01*
X128677380Y-114119047D01*
X128677380Y-114214285D01*
X128677380Y-112833333D02*
X128677380Y-113404761D01*
X128677380Y-113119047D02*
X127677380Y-113119047D01*
X127820238Y-113214285D01*
X127915476Y-113309523D01*
X127963095Y-113404761D01*
X138858095Y-118902380D02*
X138858095Y-119711904D01*
X138905714Y-119807142D01*
X138953333Y-119854761D01*
X139048571Y-119902380D01*
X139239047Y-119902380D01*
X139334285Y-119854761D01*
X139381904Y-119807142D01*
X139429523Y-119711904D01*
X139429523Y-118902380D01*
X139810476Y-118902380D02*
X140429523Y-118902380D01*
X140096190Y-119283333D01*
X140239047Y-119283333D01*
X140334285Y-119330952D01*
X140381904Y-119378571D01*
X140429523Y-119473809D01*
X140429523Y-119711904D01*
X140381904Y-119807142D01*
X140334285Y-119854761D01*
X140239047Y-119902380D01*
X139953333Y-119902380D01*
X139858095Y-119854761D01*
X139810476Y-119807142D01*
X129883333Y-110012380D02*
X129550000Y-109536190D01*
X129311904Y-110012380D02*
X129311904Y-109012380D01*
X129692857Y-109012380D01*
X129788095Y-109060000D01*
X129835714Y-109107619D01*
X129883333Y-109202857D01*
X129883333Y-109345714D01*
X129835714Y-109440952D01*
X129788095Y-109488571D01*
X129692857Y-109536190D01*
X129311904Y-109536190D01*
X130835714Y-110012380D02*
X130264285Y-110012380D01*
X130550000Y-110012380D02*
X130550000Y-109012380D01*
X130454761Y-109155238D01*
X130359523Y-109250476D01*
X130264285Y-109298095D01*
X127673333Y-125147142D02*
X127625714Y-125194761D01*
X127482857Y-125242380D01*
X127387619Y-125242380D01*
X127244761Y-125194761D01*
X127149523Y-125099523D01*
X127101904Y-125004285D01*
X127054285Y-124813809D01*
X127054285Y-124670952D01*
X127101904Y-124480476D01*
X127149523Y-124385238D01*
X127244761Y-124290000D01*
X127387619Y-124242380D01*
X127482857Y-124242380D01*
X127625714Y-124290000D01*
X127673333Y-124337619D01*
X128625714Y-125242380D02*
X128054285Y-125242380D01*
X128340000Y-125242380D02*
X128340000Y-124242380D01*
X128244761Y-124385238D01*
X128149523Y-124480476D01*
X128054285Y-124528095D01*
X134753333Y-125147142D02*
X134705714Y-125194761D01*
X134562857Y-125242380D01*
X134467619Y-125242380D01*
X134324761Y-125194761D01*
X134229523Y-125099523D01*
X134181904Y-125004285D01*
X134134285Y-124813809D01*
X134134285Y-124670952D01*
X134181904Y-124480476D01*
X134229523Y-124385238D01*
X134324761Y-124290000D01*
X134467619Y-124242380D01*
X134562857Y-124242380D01*
X134705714Y-124290000D01*
X134753333Y-124337619D01*
X135134285Y-124337619D02*
X135181904Y-124290000D01*
X135277142Y-124242380D01*
X135515238Y-124242380D01*
X135610476Y-124290000D01*
X135658095Y-124337619D01*
X135705714Y-124432857D01*
X135705714Y-124528095D01*
X135658095Y-124670952D01*
X135086666Y-125242380D01*
X135705714Y-125242380D01*
X133223333Y-117717142D02*
X133175714Y-117764761D01*
X133032857Y-117812380D01*
X132937619Y-117812380D01*
X132794761Y-117764761D01*
X132699523Y-117669523D01*
X132651904Y-117574285D01*
X132604285Y-117383809D01*
X132604285Y-117240952D01*
X132651904Y-117050476D01*
X132699523Y-116955238D01*
X132794761Y-116860000D01*
X132937619Y-116812380D01*
X133032857Y-116812380D01*
X133175714Y-116860000D01*
X133223333Y-116907619D01*
X133556666Y-116812380D02*
X134175714Y-116812380D01*
X133842380Y-117193333D01*
X133985238Y-117193333D01*
X134080476Y-117240952D01*
X134128095Y-117288571D01*
X134175714Y-117383809D01*
X134175714Y-117621904D01*
X134128095Y-117717142D01*
X134080476Y-117764761D01*
X133985238Y-117812380D01*
X133699523Y-117812380D01*
X133604285Y-117764761D01*
X133556666Y-117717142D01*
X146433333Y-119127142D02*
X146385714Y-119174761D01*
X146242857Y-119222380D01*
X146147619Y-119222380D01*
X146004761Y-119174761D01*
X145909523Y-119079523D01*
X145861904Y-118984285D01*
X145814285Y-118793809D01*
X145814285Y-118650952D01*
X145861904Y-118460476D01*
X145909523Y-118365238D01*
X146004761Y-118270000D01*
X146147619Y-118222380D01*
X146242857Y-118222380D01*
X146385714Y-118270000D01*
X146433333Y-118317619D01*
X147290476Y-118555714D02*
X147290476Y-119222380D01*
X147052380Y-118174761D02*
X146814285Y-118889047D01*
X147433333Y-118889047D01*
X135283333Y-108577142D02*
X135235714Y-108624761D01*
X135092857Y-108672380D01*
X134997619Y-108672380D01*
X134854761Y-108624761D01*
X134759523Y-108529523D01*
X134711904Y-108434285D01*
X134664285Y-108243809D01*
X134664285Y-108100952D01*
X134711904Y-107910476D01*
X134759523Y-107815238D01*
X134854761Y-107720000D01*
X134997619Y-107672380D01*
X135092857Y-107672380D01*
X135235714Y-107720000D01*
X135283333Y-107767619D01*
X136188095Y-107672380D02*
X135711904Y-107672380D01*
X135664285Y-108148571D01*
X135711904Y-108100952D01*
X135807142Y-108053333D01*
X136045238Y-108053333D01*
X136140476Y-108100952D01*
X136188095Y-108148571D01*
X136235714Y-108243809D01*
X136235714Y-108481904D01*
X136188095Y-108577142D01*
X136140476Y-108624761D01*
X136045238Y-108672380D01*
X135807142Y-108672380D01*
X135711904Y-108624761D01*
X135664285Y-108577142D01*
X148013333Y-111277142D02*
X147965714Y-111324761D01*
X147822857Y-111372380D01*
X147727619Y-111372380D01*
X147584761Y-111324761D01*
X147489523Y-111229523D01*
X147441904Y-111134285D01*
X147394285Y-110943809D01*
X147394285Y-110800952D01*
X147441904Y-110610476D01*
X147489523Y-110515238D01*
X147584761Y-110420000D01*
X147727619Y-110372380D01*
X147822857Y-110372380D01*
X147965714Y-110420000D01*
X148013333Y-110467619D01*
X148870476Y-110372380D02*
X148680000Y-110372380D01*
X148584761Y-110420000D01*
X148537142Y-110467619D01*
X148441904Y-110610476D01*
X148394285Y-110800952D01*
X148394285Y-111181904D01*
X148441904Y-111277142D01*
X148489523Y-111324761D01*
X148584761Y-111372380D01*
X148775238Y-111372380D01*
X148870476Y-111324761D01*
X148918095Y-111277142D01*
X148965714Y-111181904D01*
X148965714Y-110943809D01*
X148918095Y-110848571D01*
X148870476Y-110800952D01*
X148775238Y-110753333D01*
X148584761Y-110753333D01*
X148489523Y-110800952D01*
X148441904Y-110848571D01*
X148394285Y-110943809D01*
X148013333Y-115567142D02*
X147965714Y-115614761D01*
X147822857Y-115662380D01*
X147727619Y-115662380D01*
X147584761Y-115614761D01*
X147489523Y-115519523D01*
X147441904Y-115424285D01*
X147394285Y-115233809D01*
X147394285Y-115090952D01*
X147441904Y-114900476D01*
X147489523Y-114805238D01*
X147584761Y-114710000D01*
X147727619Y-114662380D01*
X147822857Y-114662380D01*
X147965714Y-114710000D01*
X148013333Y-114757619D01*
X148346666Y-114662380D02*
X149013333Y-114662380D01*
X148584761Y-115662380D01*
X129883333Y-117972380D02*
X129550000Y-117496190D01*
X129311904Y-117972380D02*
X129311904Y-116972380D01*
X129692857Y-116972380D01*
X129788095Y-117020000D01*
X129835714Y-117067619D01*
X129883333Y-117162857D01*
X129883333Y-117305714D01*
X129835714Y-117400952D01*
X129788095Y-117448571D01*
X129692857Y-117496190D01*
X129311904Y-117496190D01*
X130264285Y-117067619D02*
X130311904Y-117020000D01*
X130407142Y-116972380D01*
X130645238Y-116972380D01*
X130740476Y-117020000D01*
X130788095Y-117067619D01*
X130835714Y-117162857D01*
X130835714Y-117258095D01*
X130788095Y-117400952D01*
X130216666Y-117972380D01*
X130835714Y-117972380D01*
X141543333Y-122942380D02*
X141210000Y-122466190D01*
X140971904Y-122942380D02*
X140971904Y-121942380D01*
X141352857Y-121942380D01*
X141448095Y-121990000D01*
X141495714Y-122037619D01*
X141543333Y-122132857D01*
X141543333Y-122275714D01*
X141495714Y-122370952D01*
X141448095Y-122418571D01*
X141352857Y-122466190D01*
X140971904Y-122466190D01*
X141876666Y-121942380D02*
X142495714Y-121942380D01*
X142162380Y-122323333D01*
X142305238Y-122323333D01*
X142400476Y-122370952D01*
X142448095Y-122418571D01*
X142495714Y-122513809D01*
X142495714Y-122751904D01*
X142448095Y-122847142D01*
X142400476Y-122894761D01*
X142305238Y-122942380D01*
X142019523Y-122942380D01*
X141924285Y-122894761D01*
X141876666Y-122847142D01*
X122552380Y-106366666D02*
X122076190Y-106700000D01*
X122552380Y-106938095D02*
X121552380Y-106938095D01*
X121552380Y-106557142D01*
X121600000Y-106461904D01*
X121647619Y-106414285D01*
X121742857Y-106366666D01*
X121885714Y-106366666D01*
X121980952Y-106414285D01*
X122028571Y-106461904D01*
X122076190Y-106557142D01*
X122076190Y-106938095D01*
X121885714Y-105509523D02*
X122552380Y-105509523D01*
X121504761Y-105747619D02*
X122219047Y-105985714D01*
X122219047Y-105366666D01*
X124062380Y-106366666D02*
X123586190Y-106700000D01*
X124062380Y-106938095D02*
X123062380Y-106938095D01*
X123062380Y-106557142D01*
X123110000Y-106461904D01*
X123157619Y-106414285D01*
X123252857Y-106366666D01*
X123395714Y-106366666D01*
X123490952Y-106414285D01*
X123538571Y-106461904D01*
X123586190Y-106557142D01*
X123586190Y-106938095D01*
X123062380Y-105461904D02*
X123062380Y-105938095D01*
X123538571Y-105985714D01*
X123490952Y-105938095D01*
X123443333Y-105842857D01*
X123443333Y-105604761D01*
X123490952Y-105509523D01*
X123538571Y-105461904D01*
X123633809Y-105414285D01*
X123871904Y-105414285D01*
X123967142Y-105461904D01*
X124014761Y-105509523D01*
X124062380Y-105604761D01*
X124062380Y-105842857D01*
X124014761Y-105938095D01*
X123967142Y-105985714D01*
X125552380Y-106366666D02*
X125076190Y-106700000D01*
X125552380Y-106938095D02*
X124552380Y-106938095D01*
X124552380Y-106557142D01*
X124600000Y-106461904D01*
X124647619Y-106414285D01*
X124742857Y-106366666D01*
X124885714Y-106366666D01*
X124980952Y-106414285D01*
X125028571Y-106461904D01*
X125076190Y-106557142D01*
X125076190Y-106938095D01*
X124552380Y-105509523D02*
X124552380Y-105700000D01*
X124600000Y-105795238D01*
X124647619Y-105842857D01*
X124790476Y-105938095D01*
X124980952Y-105985714D01*
X125361904Y-105985714D01*
X125457142Y-105938095D01*
X125504761Y-105890476D01*
X125552380Y-105795238D01*
X125552380Y-105604761D01*
X125504761Y-105509523D01*
X125457142Y-105461904D01*
X125361904Y-105414285D01*
X125123809Y-105414285D01*
X125028571Y-105461904D01*
X124980952Y-105509523D01*
X124933333Y-105604761D01*
X124933333Y-105795238D01*
X124980952Y-105890476D01*
X125028571Y-105938095D01*
X125123809Y-105985714D01*
X125492380Y-120876666D02*
X125016190Y-121210000D01*
X125492380Y-121448095D02*
X124492380Y-121448095D01*
X124492380Y-121067142D01*
X124540000Y-120971904D01*
X124587619Y-120924285D01*
X124682857Y-120876666D01*
X124825714Y-120876666D01*
X124920952Y-120924285D01*
X124968571Y-120971904D01*
X125016190Y-121067142D01*
X125016190Y-121448095D01*
X124492380Y-120543333D02*
X124492380Y-119876666D01*
X125492380Y-120305238D01*
X130638095Y-123212380D02*
X130638095Y-124021904D01*
X130685714Y-124117142D01*
X130733333Y-124164761D01*
X130828571Y-124212380D01*
X131019047Y-124212380D01*
X131114285Y-124164761D01*
X131161904Y-124117142D01*
X131209523Y-124021904D01*
X131209523Y-123212380D01*
X132209523Y-124212380D02*
X131638095Y-124212380D01*
X131923809Y-124212380D02*
X131923809Y-123212380D01*
X131828571Y-123355238D01*
X131733333Y-123450476D01*
X131638095Y-123498095D01*
X132738095Y-112952380D02*
X132738095Y-113761904D01*
X132785714Y-113857142D01*
X132833333Y-113904761D01*
X132928571Y-113952380D01*
X133119047Y-113952380D01*
X133214285Y-113904761D01*
X133261904Y-113857142D01*
X133309523Y-113761904D01*
X133309523Y-112952380D01*
X133738095Y-113047619D02*
X133785714Y-113000000D01*
X133880952Y-112952380D01*
X134119047Y-112952380D01*
X134214285Y-113000000D01*
X134261904Y-113047619D01*
X134309523Y-113142857D01*
X134309523Y-113238095D01*
X134261904Y-113380952D01*
X133690476Y-113952380D01*
X134309523Y-113952380D01*
X126331904Y-95292380D02*
X126331904Y-94292380D01*
X126570000Y-94292380D01*
X126712857Y-94340000D01*
X126808095Y-94435238D01*
X126855714Y-94530476D01*
X126903333Y-94720952D01*
X126903333Y-94863809D01*
X126855714Y-95054285D01*
X126808095Y-95149523D01*
X126712857Y-95244761D01*
X126570000Y-95292380D01*
X126331904Y-95292380D01*
X127855714Y-95292380D02*
X127284285Y-95292380D01*
X127570000Y-95292380D02*
X127570000Y-94292380D01*
X127474761Y-94435238D01*
X127379523Y-94530476D01*
X127284285Y-94578095D01*
X126251904Y-132502380D02*
X126251904Y-131502380D01*
X126490000Y-131502380D01*
X126632857Y-131550000D01*
X126728095Y-131645238D01*
X126775714Y-131740476D01*
X126823333Y-131930952D01*
X126823333Y-132073809D01*
X126775714Y-132264285D01*
X126728095Y-132359523D01*
X126632857Y-132454761D01*
X126490000Y-132502380D01*
X126251904Y-132502380D01*
X127204285Y-131597619D02*
X127251904Y-131550000D01*
X127347142Y-131502380D01*
X127585238Y-131502380D01*
X127680476Y-131550000D01*
X127728095Y-131597619D01*
X127775714Y-131692857D01*
X127775714Y-131788095D01*
X127728095Y-131930952D01*
X127156666Y-132502380D01*
X127775714Y-132502380D01*
X123982380Y-120866666D02*
X123506190Y-121200000D01*
X123982380Y-121438095D02*
X122982380Y-121438095D01*
X122982380Y-121057142D01*
X123030000Y-120961904D01*
X123077619Y-120914285D01*
X123172857Y-120866666D01*
X123315714Y-120866666D01*
X123410952Y-120914285D01*
X123458571Y-120961904D01*
X123506190Y-121057142D01*
X123506190Y-121438095D01*
X123410952Y-120295238D02*
X123363333Y-120390476D01*
X123315714Y-120438095D01*
X123220476Y-120485714D01*
X123172857Y-120485714D01*
X123077619Y-120438095D01*
X123030000Y-120390476D01*
X122982380Y-120295238D01*
X122982380Y-120104761D01*
X123030000Y-120009523D01*
X123077619Y-119961904D01*
X123172857Y-119914285D01*
X123220476Y-119914285D01*
X123315714Y-119961904D01*
X123363333Y-120009523D01*
X123410952Y-120104761D01*
X123410952Y-120295238D01*
X123458571Y-120390476D01*
X123506190Y-120438095D01*
X123601428Y-120485714D01*
X123791904Y-120485714D01*
X123887142Y-120438095D01*
X123934761Y-120390476D01*
X123982380Y-120295238D01*
X123982380Y-120104761D01*
X123934761Y-120009523D01*
X123887142Y-119961904D01*
X123791904Y-119914285D01*
X123601428Y-119914285D01*
X123506190Y-119961904D01*
X123458571Y-120009523D01*
X123410952Y-120104761D01*
X122492380Y-120876666D02*
X122016190Y-121210000D01*
X122492380Y-121448095D02*
X121492380Y-121448095D01*
X121492380Y-121067142D01*
X121540000Y-120971904D01*
X121587619Y-120924285D01*
X121682857Y-120876666D01*
X121825714Y-120876666D01*
X121920952Y-120924285D01*
X121968571Y-120971904D01*
X122016190Y-121067142D01*
X122016190Y-121448095D01*
X122492380Y-120400476D02*
X122492380Y-120210000D01*
X122444761Y-120114761D01*
X122397142Y-120067142D01*
X122254285Y-119971904D01*
X122063809Y-119924285D01*
X121682857Y-119924285D01*
X121587619Y-119971904D01*
X121540000Y-120019523D01*
X121492380Y-120114761D01*
X121492380Y-120305238D01*
X121540000Y-120400476D01*
X121587619Y-120448095D01*
X121682857Y-120495714D01*
X121920952Y-120495714D01*
X122016190Y-120448095D01*
X122063809Y-120400476D01*
X122111428Y-120305238D01*
X122111428Y-120114761D01*
X122063809Y-120019523D01*
X122016190Y-119971904D01*
X121920952Y-119924285D01*
X175833333Y-92297142D02*
X175785714Y-92344761D01*
X175642857Y-92392380D01*
X175547619Y-92392380D01*
X175404761Y-92344761D01*
X175309523Y-92249523D01*
X175261904Y-92154285D01*
X175214285Y-91963809D01*
X175214285Y-91820952D01*
X175261904Y-91630476D01*
X175309523Y-91535238D01*
X175404761Y-91440000D01*
X175547619Y-91392380D01*
X175642857Y-91392380D01*
X175785714Y-91440000D01*
X175833333Y-91487619D01*
X176404761Y-91820952D02*
X176309523Y-91773333D01*
X176261904Y-91725714D01*
X176214285Y-91630476D01*
X176214285Y-91582857D01*
X176261904Y-91487619D01*
X176309523Y-91440000D01*
X176404761Y-91392380D01*
X176595238Y-91392380D01*
X176690476Y-91440000D01*
X176738095Y-91487619D01*
X176785714Y-91582857D01*
X176785714Y-91630476D01*
X176738095Y-91725714D01*
X176690476Y-91773333D01*
X176595238Y-91820952D01*
X176404761Y-91820952D01*
X176309523Y-91868571D01*
X176261904Y-91916190D01*
X176214285Y-92011428D01*
X176214285Y-92201904D01*
X176261904Y-92297142D01*
X176309523Y-92344761D01*
X176404761Y-92392380D01*
X176595238Y-92392380D01*
X176690476Y-92344761D01*
X176738095Y-92297142D01*
X176785714Y-92201904D01*
X176785714Y-92011428D01*
X176738095Y-91916190D01*
X176690476Y-91868571D01*
X176595238Y-91820952D01*
X175833333Y-115277142D02*
X175785714Y-115324761D01*
X175642857Y-115372380D01*
X175547619Y-115372380D01*
X175404761Y-115324761D01*
X175309523Y-115229523D01*
X175261904Y-115134285D01*
X175214285Y-114943809D01*
X175214285Y-114800952D01*
X175261904Y-114610476D01*
X175309523Y-114515238D01*
X175404761Y-114420000D01*
X175547619Y-114372380D01*
X175642857Y-114372380D01*
X175785714Y-114420000D01*
X175833333Y-114467619D01*
X176309523Y-115372380D02*
X176500000Y-115372380D01*
X176595238Y-115324761D01*
X176642857Y-115277142D01*
X176738095Y-115134285D01*
X176785714Y-114943809D01*
X176785714Y-114562857D01*
X176738095Y-114467619D01*
X176690476Y-114420000D01*
X176595238Y-114372380D01*
X176404761Y-114372380D01*
X176309523Y-114420000D01*
X176261904Y-114467619D01*
X176214285Y-114562857D01*
X176214285Y-114800952D01*
X176261904Y-114896190D01*
X176309523Y-114943809D01*
X176404761Y-114991428D01*
X176595238Y-114991428D01*
X176690476Y-114943809D01*
X176738095Y-114896190D01*
X176785714Y-114800952D01*
X154372380Y-127333333D02*
X155086666Y-127333333D01*
X155229523Y-127380952D01*
X155324761Y-127476190D01*
X155372380Y-127619047D01*
X155372380Y-127714285D01*
X154467619Y-126904761D02*
X154420000Y-126857142D01*
X154372380Y-126761904D01*
X154372380Y-126523809D01*
X154420000Y-126428571D01*
X154467619Y-126380952D01*
X154562857Y-126333333D01*
X154658095Y-126333333D01*
X154800952Y-126380952D01*
X155372380Y-126952380D01*
X155372380Y-126333333D01*
X168018095Y-101482380D02*
X168018095Y-102291904D01*
X168065714Y-102387142D01*
X168113333Y-102434761D01*
X168208571Y-102482380D01*
X168399047Y-102482380D01*
X168494285Y-102434761D01*
X168541904Y-102387142D01*
X168589523Y-102291904D01*
X168589523Y-101482380D01*
X169494285Y-101815714D02*
X169494285Y-102482380D01*
X169256190Y-101434761D02*
X169018095Y-102149047D01*
X169637142Y-102149047D01*
X168088095Y-124412380D02*
X168088095Y-125221904D01*
X168135714Y-125317142D01*
X168183333Y-125364761D01*
X168278571Y-125412380D01*
X168469047Y-125412380D01*
X168564285Y-125364761D01*
X168611904Y-125317142D01*
X168659523Y-125221904D01*
X168659523Y-124412380D01*
X169611904Y-124412380D02*
X169135714Y-124412380D01*
X169088095Y-124888571D01*
X169135714Y-124840952D01*
X169230952Y-124793333D01*
X169469047Y-124793333D01*
X169564285Y-124840952D01*
X169611904Y-124888571D01*
X169659523Y-124983809D01*
X169659523Y-125221904D01*
X169611904Y-125317142D01*
X169564285Y-125364761D01*
X169469047Y-125412380D01*
X169230952Y-125412380D01*
X169135714Y-125364761D01*
X169088095Y-125317142D01*
M02*
